<?xml version="1.0" encoding="utf-8"?>
<!-- Generator: Adobe Illustrator 22.1.0, SVG Export Plug-In . SVG Version: 6.00 Build 0)  -->
<svg version="1.1" id="Layer_1" xmlns="http://www.w3.org/2000/svg" xmlns:xlink="http://www.w3.org/1999/xlink" x="0px" y="0px"
	 viewBox="0 0 1920 1080" style="enable-background:new 0 0 1920 1080;" xml:space="preserve">
<style type="text/css">
	.st0{opacity:0.42;fill:#383838;enable-background:new    ;}
	.st1{fill:#002548;}
	.st2{fill:#4C7BB3;}
	.st3{fill:#383838;}
	.st4{fill:#FF7F00;}
	.st5{fill:#FFF8E7;}
	.st6{fill:#009866;}
	.st7{fill:#167053;}
	.st8{fill:none;stroke:#FFF8E7;stroke-width:8;stroke-miterlimit:10;}
	.st9{fill:none;stroke:#FFF8E7;stroke-width:8;stroke-miterlimit:10;stroke-dasharray:141.2222,141.2222;}
	.st10{fill:none;stroke:#FFF8E7;stroke-width:0.9205;stroke-miterlimit:10;}
	.st11{fill:#FBD6B7;}
	.st12{fill:none;stroke:#848585;stroke-width:4.9488;stroke-linecap:round;stroke-linejoin:round;stroke-miterlimit:10;}
	.st13{fill:none;stroke:#323232;stroke-width:4.9488;stroke-linecap:square;stroke-linejoin:bevel;stroke-miterlimit:10;}
	.st14{fill:#F5DFBC;}
	.st15{fill:#322A25;}
	.st16{fill:none;stroke:#002548;stroke-width:13.8075;stroke-miterlimit:10;}
	.st17{fill:none;stroke:#5A5959;stroke-width:2.4744;stroke-miterlimit:10;}
	.st18{fill:none;stroke:#002548;stroke-width:6.1041;stroke-linecap:round;stroke-linejoin:round;stroke-miterlimit:10;}
	.st19{fill:none;stroke:#C80C0F;stroke-width:4.7518;stroke-linecap:round;stroke-linejoin:round;stroke-miterlimit:10;}
	.st20{opacity:0.3;enable-background:new    ;}
	.st21{fill:#E3E3E2;}
	.st22{fill:#002548;stroke:#002548;stroke-width:6.1041;stroke-miterlimit:10;}
	.st23{fill:none;stroke:#848585;stroke-width:6.2522;stroke-linecap:round;stroke-linejoin:round;stroke-miterlimit:10;}
	.st24{fill:none;stroke:#323232;stroke-width:6.2522;stroke-linecap:square;stroke-linejoin:bevel;stroke-miterlimit:10;}
	.st25{fill:none;stroke:#002548;stroke-width:17.4443;stroke-miterlimit:10;}
	.st26{fill:none;stroke:#5A5959;stroke-width:3.1261;stroke-miterlimit:10;}
	.st27{fill:none;stroke:#FFF8E7;stroke-width:8;stroke-linecap:round;stroke-linejoin:round;stroke-miterlimit:10;}
	.st28{fill:none;stroke:#C80C0F;stroke-width:6.0034;stroke-linecap:round;stroke-linejoin:round;stroke-miterlimit:10;}
	.st29{fill:none;stroke:#322A25;stroke-width:7.7119;stroke-linecap:round;stroke-linejoin:round;stroke-miterlimit:10;}
	.st30{fill:#ACACAC;}
	.st31{fill:url(#SVGID_1_);}
	.st32{fill:url(#SVGID_2_);}
    .bike1 {
    -webkit-animation:drift 8s linear;
    -moz-animation: drift 8s linear;
    -o-animation: drift 8s linear;
    -ms-animation: drift 8s linear;
    animation:drift 8s linear;
    -webkit-animation-iteration-count: infinite;
    -moz-animation-iteration-count: infinite;
    -ms-animation-iteration-count: infinite;
    -o-animation-iteration-count: infinite;
    animation-iteration-count: infinite;
    }
    .bike2 {
    animation-delay: 6s;
    -webkit-animation:drift2 6s linear;
    -moz-animation: drift2 6s linear;
    -o-animation: drift2 6s linear;
    -ms-animation: drift2 6s linear;
    animation:drift2 6s linear;
    -webkit-animation-iteration-count: infinite;
    -moz-animation-iteration-count: infinite;
    -ms-animation-iteration-count: infinite;
    -o-animation-iteration-count: infinite;
    animation-iteration-count: infinite;
    }
    @-webkit-keyframes drift {
    0% {opacity: 1;-webkit-transform: translateX(-40%);}
    100% {opacity: 1;-webkit-transform: translateX(100%);}
    }
    @-moz-keyframes drift {
    0% {opacity: 1;-moz-transform: translateX(-40%);}
    100% {opacity: 1;-moz-transform: translateX(100%);}
    }
    @-o-keyframes drift {
    0% {opacity: 1;-o-transform: translateX(-40%);}
    100% {opacity: 1;-o-transform: translateX(100%);}
    }
    @-ms-keyframes drift {
    0% {opacity: 1;-ms-transform: translateX(-40%);}
    100% {opacity: 1;-ms-transform: translateX(100%);}
    }
    @keyframes drift {
    0% {opacity: 1;transform: translateX(-40%);}
    100% {opacity: 1;transform: translateX(100%);}
    }
    
    @-webkit-keyframes drift2 {
    0% {opacity: 1;-webkit-transform: translateX(100%);}
    100% {opacity: 1;-webkit-transform: translateX(-1200px);}
    }
    @-moz-keyframes drift2 {
    0% {opacity: 1;-moz-transform: translateX(100%);}
    100% {opacity: 1;-moz-transform: translateX(-1200px);}
    }
    @-o-keyframes drift2 {
    0% {opacity: 1;-o-transform: translateX(100%);}
    100% {opacity: 1;-o-transform: translateX(-1200px);}
    }
    @-ms-keyframes drift2 {
    0% {opacity: 1;-ms-transform: translateX(100%);}
    100% {opacity: 1;-ms-transform: translateX(-1200px);}
    }
    @keyframes drift2 {
    0% {opacity: 1;transform: translateX(100%);}
    100% {opacity: 1;transform: translateX(-1200px);}
    }
</style>
<g id="Livello_3">
	<rect class="st0" width="1920" height="1080"/>
    <rect class="st0" width="1920" height="1080"/>
</g>
<g id="Livello_2">
	<rect x="248" class="st1" width="1471" height="987"/>
	<rect x="279" class="st2" width="1402" height="948"/>
	<rect x="279" y="681" class="st3" width="1402" height="267"/>
	<rect x="279" y="591" class="st4" width="1402" height="75"/>
	<rect x="279" y="666" class="st4" width="1402" height="15"/>
	<rect x="279" y="666" class="st0" width="1402" height="15"/>
	<rect x="240" class="st5" width="538" height="591"/>
	<rect x="778.1" class="st2" width="902.9" height="591"/>
	<path class="st3" d="M1249.2,90c-60.2,0-109,48.8-109,109v392h218V199C1358.2,138.8,1309.4,90,1249.2,90z"/>
	<rect x="1445.9" y="83" class="st3" width="185.1" height="364"/>
	<rect x="1435.3" y="447" class="st5" width="206.2" height="15.2"/>
	<polygon class="st5" points="1641.5,83 1435.3,83 1435.3,67.8 1538.4,9.7 1641.5,67.8 	"/>
	<polygon class="st0" points="1452.9,69.2 1625,69.2 1538.4,23.7 	"/>
	<rect x="867.4" y="83" class="st3" width="185.1" height="364"/>
	<rect x="856.9" y="447" class="st5" width="206.2" height="15.2"/>
	<polygon class="st5" points="1063.1,83 856.9,83 856.9,67.8 960,9.7 1063.1,67.8 	"/>
	<polygon class="st0" points="874.5,69.2 1046.5,69.2 960,23.7 	"/>
	<rect x="501" y="83" class="st1" width="232" height="364"/>
	<rect x="1382" y="244" class="st0" width="38" height="62"/>
	<polygon class="st3" points="501,447 470.5,416.5 762,416.5 732.2,446.2 	"/>
	<path class="st6" d="M501,408c0,0-23-31,27-52s67,51,95,44s20-57,33-57s88.4-16.7,68,47.7c-13,41,0,4.3,0,4.3l-56,14L501,408z"/>
	<path class="st7" d="M470.5,416.5c0,0-18.5-22.5-7.5-32.5s26,10.5,46,6.7c20-3.7,36-45.7,81-40.7s73,41,105,25s81,3,67,41.5H470.5z
		"/>
	<rect x="479.9" y="69.2" class="st1" width="264.2" height="14.8"/>
	<line class="st8" x1="279" y1="717.1" x2="1681" y2="717.1"/>
	<g>
		<g>
			<line class="st8" x1="279" y1="920.4" x2="344.5" y2="920.4"/>
			<line class="st9" x1="485.7" y1="920.4" x2="1544.9" y2="920.4"/>
			<line class="st8" x1="1615.5" y1="920.4" x2="1681" y2="920.4"/>
		</g>
	</g>
</g>
<g id="motion">
	<g class="bike1" transform="translate(-500,0)">
		<line class="st10" x1="634" y1="666.3" x2="643" y2="562.6"/>
		<line class="st10" x1="634" y1="666.3" x2="615.9" y2="563.8"/>
		<line class="st10" x1="634" y1="666.3" x2="590" y2="572"/>
		<line class="st10" x1="634" y1="666.3" x2="567.1" y2="586.6"/>
		<line class="st10" x1="634" y1="666.3" x2="548.8" y2="606.6"/>
		<line class="st10" x1="634" y1="666.3" x2="536.3" y2="630.7"/>
		<line class="st10" x1="634" y1="666.3" x2="530.4" y2="657.3"/>
		<line class="st10" x1="634" y1="666.3" x2="531.6" y2="684.4"/>
		<line class="st10" x1="634" y1="666.3" x2="539.8" y2="710.3"/>
		<line class="st10" x1="634" y1="666.3" x2="554.4" y2="733.2"/>
		<line class="st10" x1="634" y1="666.3" x2="574.4" y2="751.5"/>
		<line class="st10" x1="634" y1="666.3" x2="598.5" y2="764.1"/>
		<line class="st10" x1="634" y1="666.3" x2="625" y2="769.9"/>
		<line class="st10" x1="634" y1="666.3" x2="652.2" y2="768.7"/>
		<line class="st10" x1="634" y1="666.3" x2="678.1" y2="760.5"/>
		<line class="st10" x1="634" y1="666.3" x2="701" y2="745.9"/>
		<line class="st10" x1="268.3" y1="670.5" x2="335.2" y2="750.1"/>
		<line class="st10" x1="268.3" y1="670.5" x2="353.5" y2="730.1"/>
		<line class="st10" x1="268.3" y1="670.5" x2="366" y2="706"/>
		<line class="st10" x1="268.3" y1="670.5" x2="371.9" y2="679.5"/>
		<line class="st10" x1="268.3" y1="670.5" x2="370.7" y2="652.3"/>
		<line class="st10" x1="268.3" y1="670.5" x2="362.5" y2="626.4"/>
		<line class="st10" x1="268.3" y1="670.5" x2="347.9" y2="603.5"/>
		<line class="st10" x1="268.3" y1="670.5" x2="327.9" y2="585.2"/>
		<line class="st10" x1="268.3" y1="670.5" x2="303.8" y2="572.7"/>
		<line class="st10" x1="268.3" y1="670.5" x2="277.3" y2="566.8"/>
		<line class="st10" x1="268.3" y1="670.5" x2="250.1" y2="568"/>
		<line class="st10" x1="268.3" y1="670.5" x2="224.2" y2="576.2"/>
		<line class="st10" x1="268.3" y1="670.5" x2="201.3" y2="590.8"/>
		<line class="st10" x1="268.3" y1="670.5" x2="183" y2="610.8"/>
		<line class="st10" x1="268.3" y1="670.5" x2="170.5" y2="634.9"/>
		<line class="st10" x1="268.3" y1="670.5" x2="164.6" y2="661.5"/>
		<line class="st10" x1="268.3" y1="670.5" x2="165.8" y2="688.6"/>
		<line class="st10" x1="268.3" y1="670.5" x2="174" y2="714.5"/>
		<line class="st10" x1="268.3" y1="670.5" x2="188.6" y2="737.4"/>
		<line class="st10" x1="268.3" y1="670.5" x2="208.6" y2="755.7"/>
		<line class="st10" x1="268.3" y1="670.5" x2="232.7" y2="768.2"/>
		<line class="st10" x1="268.3" y1="670.5" x2="259.2" y2="774.1"/>
		<line class="st10" x1="268.3" y1="670.5" x2="286.4" y2="772.9"/>
		<line class="st10" x1="268.3" y1="670.5" x2="312.3" y2="764.7"/>
		<line class="st10" x1="268.3" y1="670.5" x2="335.2" y2="750.1"/>
		<line class="st10" x1="634" y1="666.3" x2="719.3" y2="725.9"/>
		<line class="st10" x1="634" y1="666.3" x2="731.8" y2="701.8"/>
		<line class="st10" x1="634" y1="666.3" x2="737.7" y2="675.3"/>
		<line class="st10" x1="634" y1="666.3" x2="736.5" y2="648.1"/>
		<line class="st10" x1="634" y1="666.3" x2="728.3" y2="622.2"/>
		<line class="st10" x1="634" y1="666.3" x2="713.7" y2="599.3"/>
		<line class="st10" x1="634" y1="666.3" x2="693.7" y2="581"/>
		<line class="st10" x1="634" y1="666.3" x2="669.6" y2="568.5"/>
		<path class="st11" d="M528.3,431.7c0,0,6.6,0.3,5.6,5.2c-1.1,4.9-7.8,5.4-7.8,5.4l-5.3-6.5L528.3,431.7z"/>
		<path class="st3" d="M444.5,300.2c0,0-2.7,31.8-2.3,32.2c0.4,0.5-19.5,25-19.5,25l-19,10.7c0,0-13.1-24.5-13.5-25.2
			c-0.4-0.8,24.6-22.6,24.6-22.6L444.5,300.2z"/>
		<line class="st12" x1="434.2" y1="667.8" x2="461.4" y2="620.6"/>
		<line class="st13" x1="453.6" y1="620.6" x2="469.2" y2="620.7"/>
		<path class="st4" d="M481.3,342c-8.1-1.8-13.5,14.4-7,25.8c1.7,2.9,5.6,9,10.5,16.4c5-4.3,10.9-8,16.8-11.5
			C494.6,357.8,487.5,345.5,481.3,342z"/>
		<path class="st14" d="M528.3,431.7c-7.2-13-16.9-38.5-26.7-59.1c-5.9,3.5-11.8,7.2-16.8,11.5c11.6,17.4,28.8,42.1,35.8,51.5
			C523,434.6,525.5,432.7,528.3,431.7z"/>
		<path class="st14" d="M448.4,579.9c1.9-0.2,3.9-0.4,5.8-0.6C452.3,579.5,450.4,579.7,448.4,579.9c0.4,10,0.5,20.4-0.1,31.1
			l12.8,0.1c-0.1-4.6,5.6-50.9,8.3-77.5c-7,6.8-14.3,13-23.6,16C447,559,448,569.2,448.4,579.9z"/>
		<path class="st1" d="M446.5,451.1c-9.2-11.9-16.2,4.8-19,8.3c-2.7,3.5-15.6-4.4,3.4,23.9c0,0,9.8,26.9,14.9,66.2
			c9.3-2.9,16.6-9.1,23.6-16c0.8-8.4,1.4-14.8,1.4-17.4C470.7,505.5,455.8,463.1,446.5,451.1z"/>
		<path class="st15" d="M461.1,611.1c0,0,10.4,4,15.4,5.7c2,0.7,1.3,1.2,1.3,1.4c-0.1,0.2-26.4-0.1-29-0.1c0,0-2.2-3.4-0.4-7.2
			C454.6,610.5,461.1,611.1,461.1,611.1z"/>
		<path class="st16" d="M372.3,668.9c-0.3,57.4-47.1,103.8-104.6,103.4c-57.5-0.3-103.8-47.1-103.5-104.6s47.1-103.8,104.6-103.5
			C326.3,564.6,372.6,611.5,372.3,668.9z"/>
		<path class="st16" d="M738.1,666.8c-0.3,57.4-47.1,103.8-104.6,103.4C576,770,529.7,723.1,530,665.7
			c0.3-57.5,47.1-103.8,104.6-103.5S738.4,609.4,738.1,666.8z"/>
		<path class="st17" d="M268.2,686.7c-10.1-0.1-18.3-8.3-18.2-18.4c0.1-10.1,8.3-18.3,18.4-18.2L434,630.5
			c20,0.1,36.2,16.4,36.1,36.5c-0.1,20-16.4,36.2-36.5,36.1L268.2,686.7z"/>
		<polygon class="st18" points="587.8,489 408.5,488.8 264.7,670.1 433.8,666.8 		"/>
		<line class="st19" x1="403.4" y1="482.2" x2="433.8" y2="666.8"/>
		<path class="st1" d="M465.7,667c-0.1,17.6-14.5,31.9-32.1,31.8c-17.6-0.1-31.9-14.5-31.8-32.2s14.5-31.9,32.1-31.8
			C451.6,635,465.8,649.3,465.7,667z"/>
		<path class="st18" d="M515.2,459c0,0,29.2,0.2,43.2,0.2c14,0.1,26.8,9.3,26.7,34.2s-1,122.3,48.9,172.8"/>
		<path class="st18" d="M514.8,441.1c0,0,29.2,0.2,43.2,0.2c14,0.1,26.8,9.3,26.7,34.2c-0.1,9.3,4.6,14.6,1.3,15.5"/>
		
			<rect x="522.1" y="426.6" transform="matrix(5.528130e-03 -1 1 5.528130e-03 82.098 964.86)" class="st15" width="8.1" height="29.2"/>
		
			<rect x="522" y="444.4" transform="matrix(5.519722e-03 -1 1 5.519722e-03 64.1023 982.4701)" class="st15" width="8.1" height="29.2"/>
		<path class="st15" d="M524,432"/>
		<path class="st11" d="M521.5,450.5c0,0,14.1,7.3,10.5,10.9c-3.6,3.5-17.1-1.2-21.1-6.1C507.4,450.9,521.5,450.5,521.5,450.5z"/>
		<path class="st11" d="M524.6,437.1c0,0,0.7,7.9,3,5.2s4.7-4.6,2.9-5.9C528.6,435,524.6,437.1,524.6,437.1z"/>
		<path class="st1" d="M268.2,682.3c-7.7,0-13.9-6.3-13.9-14c0.1-11,12.8-18.9,24.2-10.1C287.2,669.7,279.2,682.4,268.2,682.3z"/>
		<line class="st12" x1="423.5" y1="711" x2="434.2" y2="666.4"/>
		<line class="st13" x1="416.9" y1="711.4" x2="431.3" y2="711.5"/>
		<path class="st14" d="M413,580.2c4.1,33,4.4,73.9-4.6,121.4l12.8,0.5c-0.2-1.8,18.2-79.1,25.2-122
			C435.3,580.9,424.2,580.4,413,580.2z"/>
		<path class="st1" d="M422.7,469.3c-17.6-14.2-37.3,16.7-37.3,16.7s20.2,33.9,27.7,94.1c11.1,0.3,22.2,0.7,33.4-0.1
			c2-12.4,3.1-22,2.4-26c-0.2-1.5-0.5-3.2-0.8-5.2c-1,0.4-1.9,0.7-2.9,1c1-0.3,2-0.6,2.9-1C444.9,527.5,438.8,482.4,422.7,469.3z"/>
		<path class="st15" d="M421.2,701.7c0,0,10.4,4,15.4,5.7c2,0.7,1.3,1.2,1.3,1.4c-0.1,0.2-27.9-0.1-30.5-0.1c0,0-1.3-1.7,1.1-7.2
			C414.7,701.1,421.2,701.7,421.2,701.7z"/>
		<path class="st4" d="M425.6,326.2c0,0-6.5-0.2-9.4,3.8c-9.8,13.3-26.9,46.1-32.7,59.4c-9.9,22.9-20.4,87.4,1.4,99.9
			c66.7-11.2,60-43.5,61.3-57.6c2.1-21.1,34.5-68.5,39.3-79.7C491.4,338.4,448.4,326.8,425.6,326.2z"/>
		<path class="st18" d="M443.6,302.8c18.2,4.3,29,34.5,29,34.5s-3.4,38.5-2.7,39.7"/>
		<path class="st14" d="M463.9,332.7c-4.1-1.1-5-9.3-0.3-8c4.6,1.3,6.9-3.5,6.9-3.5l3.9-14.1c0,0,3.5-7.5-8.9-11
			c-10.9-3.1-11.8,5.2-11.8,5.2s-4.9,17.4-6.1,21.7c-1.2,4.3-10,4.1-10.6,3.9c-1.2-0.3,4.7,24.3,31.7,7.6
			C468.8,334.5,464.3,332.8,463.9,332.7z"/>
		<path class="st20" d="M413.3,341c0,0-5.1,21.2,0.3,26.7c2.3,2.5,39.7,42.7,39.7,42.7s1.4-4,2.6-6.8
			C457.2,400.7,411.9,348,413.3,341z"/>
		<polygon class="st15" points="338.9,290.4 384.2,281.6 444.5,300.2 414.7,320.3 		"/>
		<g>
			<path class="st3" d="M461.2,330.4c-0.8-2.6-0.7-5.7,1.4-5.8c-1.6-0.3-3.7-0.7-3.9-1.1C458.3,322.9,460.1,328.3,461.2,330.4
				L461.2,330.4z"/>
			<path class="st3" d="M464.5,324.9h-0.1C464.4,324.8,464.4,324.8,464.5,324.9z"/>
		</g>
		<path class="st21" d="M477.4,337.7"/>
		<path class="st15" d="M595.6,503.4c-7.7-0.6-13.5-7.3-12.9-15s7.3-13.5,15-12.9"/>
		
			<ellipse transform="matrix(7.267873e-02 -0.9974 0.9974 7.267873e-02 65.1214 1048.9073)" class="st4" cx="596.6" cy="489.4" rx="14" ry="5.8"/>
		
			<rect x="294.4" y="326.9" transform="matrix(0.3323 -0.9432 0.9432 0.3323 -106.8973 580.3975)" class="st22" width="124.2" height="77.5"/>
		<path class="st18" d="M413.7,320c0,0,27.6,7.3,26.7,19.5"/>
		<path class="st18" d="M433,381.6c0,0-24.4,60.4-58.6,57.5"/>
		<path class="st4" d="M458.5,361.4c-10.5-15.5-21.4-28.4-32-33c-6.2,0-13.5,0.5-15.2,22.1c-0.7,8.3,11.8,24.3,27.7,41.1
			C442.7,379.8,449.2,369,458.5,361.4z"/>
		<path class="st14" d="M513.5,445.5c-11.8-5.6-32.5-51-55-84.1c-9.3,7.6-15.8,18.4-19.4,30.2c25.3,26.7,59.3,55.3,63.1,57.8
			c0.8,0.6,7.9,5.1,8.8,5.9c3-2.3,6.7-3.9,10.5-4.8C519.9,449.7,515.3,446.4,513.5,445.5z"/>
		<path class="st14" d="M473.6,310.3c0,0-1.9,6.7-1,7.6s-1.5,1.3-1.5,1.3S469.9,310.9,473.6,310.3z"/>
		<path class="st3" d="M453.2,299.5l-3.9,13.8c0,0,2.7,3,6.2,1.4c3.5-1.7,13.8-8.3,19.1-8.3c5.3,0,12-4.6,10.4-7.4
			c-1.6-3-9.7-1-13.7-1.9C462.6,295.2,455.1,292.7,453.2,299.5z"/>
	</g>
	<g class="bike2" transform="translate(0,300)">
		<path class="st15" d="M1263.5,469.8c0,0,1.9,8.1-6.8,15s-2.5,23.4,11.1,24.5s36.8,24.1,34.1-4.7S1277.7,462,1263.5,469.8z"/>
		<path class="st14" d="M1196,632.6c0,0-8.3,0.4-7,6.6c1.3,6.2,9.9,6.8,9.9,6.8l7.6-9.3L1196,632.6z"/>
		<path class="st3" d="M1302,466.4c0,0,3.4,40.1,3,40.7s24.7,31.6,24.7,31.6l24,13.6c0,0,16.6-30.9,17-31.9s-31.1-28.5-31.1-28.5
			L1302,466.4z"/>
		<line class="st23" x1="1315" y1="930.9" x2="1280.5" y2="871.3"/>
		<line class="st24" x1="1290.4" y1="871.2" x2="1270.7" y2="871.3"/>
		<path class="st1" d="M1255.3,519.3c10.3-2.3,17,18.2,8.9,32.5c-2.1,3.7-7.1,11.4-13.3,20.7c-6.3-5.5-13.7-10.1-21.2-14.6
			C1238.6,539.2,1247.5,523.7,1255.3,519.3z"/>
		<path class="st14" d="M1196,632.6c9.1-16.4,21.4-48.6,33.7-74.7c7.4,4.4,14.9,9.1,21.2,14.6c-14.6,21.9-36.4,53.2-45.2,65.1
			C1202.7,636.3,1199.6,633.9,1196,632.6z"/>
		<path class="st5" d="M1300.2,781.5c6.4-49.7,18.8-83.7,18.8-83.7c24-35.7,7.7-25.8,4.3-30.2c-3.5-4.4-12.3-25.6-24-10.5
			c-11.6,15.1-30.5,68.7-30.7,82.2c0,3.2,0.7,11.4,1.7,22c2,20.1,5.4,49.1,7.8,70.4c6.2,0.4,12.5,1,18.3,2.8c0-5,0.2-9.9,0.4-14.8
			C1297.5,806.3,1298.7,793.4,1300.2,781.5z"/>
		<path class="st14" d="M1280.9,859.2l16.2-0.1c-0.4-8.4-0.6-16.6-0.5-24.6c-5.9-1.8-12.1-2.5-18.3-2.8
			C1279.8,846.1,1280.9,856.9,1280.9,859.2z"/>
		<path class="st15" d="M1280.9,859.2c0,0-13.2,5.1-19.4,7.3c-2.6,0.9-1.6,1.5-1.6,1.8c0.2,0.3,33.3-0.1,36.6-0.1
			c0,0,2.8-4.3,0.6-9.1C1289.1,858.5,1280.9,859.2,1280.9,859.2z"/>
		<path class="st25" d="M1393.1,932.3c0.4,72.6,59.6,131.1,132.1,130.7c72.6-0.4,131.1-59.6,130.7-132.1
			c-0.4-72.6-59.6-131.1-132.2-130.7C1451.2,800.5,1392.7,859.7,1393.1,932.3z"/>
		<path class="st25" d="M931,929.7c0.4,72.6,59.6,131.1,132.1,130.7c72.6-0.4,131.1-59.6,130.7-132.1
			c-0.4-72.6-59.6-131.1-132.1-130.7C989.1,797.9,930.6,857.1,931,929.7z"/>
		<path class="st26" d="M1524.7,954.7c12.8-0.1,23.1-10.5,23-23.3s-10.5-23.1-23.3-23l-209.2-24.6c-25.3,0.1-45.7,20.8-45.6,46.1
			s20.8,45.7,46.1,45.6L1524.7,954.7z"/>
		<polygon class="st27" points="1120.8,705 1347.4,704.7 1529,933.8 1315.4,929.6 		"/>
		<line class="st28" x1="1353.9" y1="696.4" x2="1315.4" y2="929.6"/>
		<path class="st1" d="M1275.1,929.8c0.1,22.3,18.3,40.2,40.6,40.1c22.3-0.1,40.2-18.3,40.1-40.6s-18.3-40.3-40.6-40.1
			S1275,907.6,1275.1,929.8z"/>
		<path class="st27" d="M1212.6,667c0,0-36.9,0.2-54.6,0.3s-33.9,11.8-33.7,43.2c0.2,31.5,1.3,154.5-61.8,218.3"/>
		<path class="st27" d="M1213,644.5c0,0-36.9,0.2-54.6,0.3s-33.9,11.8-33.7,43.2c0.1,11.8-5.8,18.5-1.6,19.5"/>
		
			<rect x="1180.3" y="639.5" transform="matrix(1 -5.528130e-03 5.528130e-03 1 -3.5452 6.6368)" class="st15" width="36.9" height="10.2"/>
		
			<rect x="1180.5" y="662" transform="matrix(1 -5.519721e-03 5.519721e-03 1 -3.664 6.6281)" class="st15" width="36.9" height="10.2"/>
		<path class="st15" d="M1201.5,632.9"/>
		<path class="st14" d="M1204.7,656.3c0,0-17.8,9.2-13.3,13.7s21.6-1.5,26.6-7.7C1222.5,656.8,1204.7,656.3,1204.7,656.3z"/>
		<path class="st14" d="M1200.7,639.5c0,0-0.8,10-3.8,6.4s-6-5.8-3.6-7.4C1195.6,636.8,1200.7,639.5,1200.7,639.5z"/>
		<line class="st23" x1="1328.5" y1="985.4" x2="1315" y2="929.1"/>
		<line class="st24" x1="1336.8" y1="986" x2="1318.6" y2="986.1"/>
		<path class="st5" d="M1341.6,820.2c9.4-76.1,34.9-118.9,34.9-118.9s-24.9-39.1-47.1-21.1c-20.4,16.5-28,73.5-32,100.4
			c-0.4,2.5-0.7,4.7-1,6.6c-0.8,5.1,0.5,17.2,3,32.9c5.8,36,18,90.9,25.5,124.6c6,0.5,12,1,18,1.4
			C1336.3,897.6,1337.3,855.3,1341.6,820.2z"/>
		<path class="st14" d="M1325,944.6c3.8,17.2,6.4,28.8,6.3,29.6l16.1-0.6c-1.8-9.4-3.3-18.6-4.5-27.6
			C1337,945.6,1331,945.1,1325,944.6z"/>
		<path class="st15" d="M1331.3,973.7c0,0-13.2,5.1-19.4,7.3c-2.6,0.9-1.6,1.5-1.6,1.8c0.2,0.3,35.2-0.1,38.6-0.1
			c0,0,1.6-2.2-1.4-9.1C1339.5,973,1331.3,973.7,1331.3,973.7z"/>
		<path class="st1" d="M1325.7,499.4c0,0,8.2-0.3,11.9,4.8c12.4,16.8,34,58.2,41.3,75.1c12.5,29,25.8,110.4-1.8,126.2
			c-84.3-14.1-75.8-55-77.4-72.7c-2.7-26.7-43.6-86.5-49.6-100.7C1242.7,514.7,1296.9,500,1325.7,499.4z"/>
		<path class="st29" d="M1303.1,469.8c-22.9,5.4-34.8,29.5-36.6,43.6c-1.6,12.5,4.3,48.6,3.4,50.1"/>
		<path class="st14" d="M1277.4,507.5c5.1-1.4,6.3-11.8,0.4-10.1c-5.9,1.6-8.7-4.4-8.7-4.4l-5-17.8c0,0-4.4-9.5,11.2-13.9
			c13.8-3.9,14.9,6.6,14.9,6.6s6.1,22,7.7,27.4c1.5,5.4,12.6,5.2,13.4,5c1.5-0.4-6,30.7-40,9.6
			C1271.2,509.8,1276.8,507.7,1277.4,507.5z"/>
		<path class="st20" d="M1341.3,518c0,0,6.5,26.8-0.4,33.7c-2.9,3.1-50.2,53.9-50.2,53.9s-1.7-5-3.3-8.6
			C1285.8,593.4,1343,526.8,1341.3,518z"/>
		<g>
			<polygon points="1435.3,454 1378.1,443 1302,466.4 1339.6,491.8 			"/>
		</g>
		<g>
			<path class="st3" d="M1280.7,504.6c1-3.3,0.9-7.1-1.7-7.3c2.1-0.4,4.7-0.9,5-1.3C1284.4,495.1,1282.2,502,1280.7,504.6
				L1280.7,504.6z"/>
			<path class="st3" d="M1276.6,497.6L1276.6,497.6C1276.7,497.6,1276.7,497.6,1276.6,497.6z"/>
		</g>
		<path class="st21" d="M1260.3,513.8"/>
		<path class="st5" d="M1111,723.1c9.7-0.7,17-9.2,16.3-18.9s-9.2-17-18.9-16.3"/>
		
			<ellipse transform="matrix(0.9974 -7.267873e-02 7.267873e-02 0.9974 -48.3422 82.5209)" class="st4" cx="1109.7" cy="705.5" rx="7.4" ry="17.7"/>
		<polygon class="st15" points="1393,639.5 1485.4,607 1435.3,454 1340.8,491.5 		"/>
		<path class="st29" d="M1340.8,491.5c0,0-34.8,9.3-33.7,24.6"/>
		<path class="st29" d="M1316.4,569.3c0,0,30.8,76.3,74,72.6"/>
		<path class="st1" d="M1284.2,543.8c13.3-19.6,27.1-35.8,40.4-41.8c7.8,0,17,0.7,19.2,27.9c0.9,10.5-14.9,30.8-35,52
			C1304.2,567,1295.9,553.4,1284.2,543.8z"/>
		<path class="st14" d="M1214.7,650.1c14.9-7,41.1-64.4,69.5-106.2c11.8,9.6,20,23.2,24.6,38.1c-32,33.8-75,69.9-79.7,73
			c-1.1,0.7-10,6.4-11.1,7.4c-3.8-3-8.4-5-13.3-6.1C1206.7,655.4,1212.4,651.2,1214.7,650.1z"/>
		<path class="st14" d="M1265.2,479.2c0,0,2.4,8.4,1.3,9.6c-1.1,1.1,1.8,1.6,1.8,1.6S1269.7,480,1265.2,479.2z"/>
		<path class="st15" d="M1265.2,477.8c0,0,16.9-2.7,18.9,5.8s1.2,13.9,7.2,18.5c6,4.7,17.5,18.4,38.2,15s20.9-29.9,11.3-34.6
			s-37.8-17.5-50.3-26.8C1285.2,451.8,1253.3,460.8,1265.2,477.8z"/>
	</g>
</g>
<g id="Livello_1">
	<g>
		<path class="st1" d="M1540.2,709.5c3.4-44.7-3.1-31.9-27.9-38.1c-13.8-3.4-20-18.3-19.9-31.5c0.2-10-9-29.4-9.2-37
			c-0.3-7.6-17.8-2.3-11.2-11.6c10-14.2,12.5-103.1,12.5-103.1c0.2-2.7,0.4-5.5,0.7-8.3c0,0-4.5-60.6,88.9-65.3
			c110-5.6,104,68.8,104,68.8c4.2,16.2-1.6,48.9-11.5,96.7c-26.3,126.7,45.3,129.8,67.6,135c2.5,0.6,66.4,1.2,66.4,1.2
			c-28.2,27-176.2,89.5-244,83.4c-84-7.5-120.4-61.1-124.9-75.6c19.3,0.5,25.3-2.5,99.3-3.2C1539.5,719.6,1540.2,710.5,1540.2,709.5
			z"/>
		<path class="st1" d="M1557.5,670.1c22.1-4.9-14.6,25.2-17.3,39.5l0,0c3.2-44.7-3.1-31.9-27.9-38.1
			C1512.3,671.4,1535.5,675.1,1557.5,670.1z"/>
	</g>
	<rect y="985.4" class="st30" width="1920" height="94.6"/>
	<path class="st1" d="M479.9,0c0,0-8.8,520-167.8,710c0,0,74,283,74,370H0.1V0H479.9z"/>
	<g>
		<path class="st1" d="M1920,727.9c-31.8,0-69.4,0-110.7,0c-13.1,16.1-30.9,27.1-51.3,28.1c-62,3,17,68-106,117s-114-91-140-117
			c-6.3-6.3-8.9-16.3-9-28.1c-154.6,0-291.4,0-321.8,0c-61.2,0-51.2,249.1-44.4,352.1H1920V727.9z"/>
		<path class="st1" d="M1817,607c-40-51-72-192-120-202s-199-39-222,33c-9,28.2-4,85,25,89s53,73,38,94
			c-11.4,15.9-35.3,70.2-35,106.9c102.9,0,213.7,0,306.3,0C1836,695.1,1843.8,641.2,1817,607z"/>
		<path class="st1" d="M1652,873c123-49,44-114,106-117c20.5-1,38.2-12,51.3-28.1c-92.7,0-203.5,0-306.3,0c0.1,11.8,2.7,21.8,9,28.1
			C1538,782,1529,922,1652,873z"/>
	</g>
</g>
<linearGradient id="SVGID_1_" gradientUnits="userSpaceOnUse" x1="959.3615" y1="1080" x2="959.3615" y2="1.7654">
	<stop  offset="0" style="stop-color:#0E2747"/>
	<stop  offset="1" style="stop-color:#0E2747;stop-opacity:0"/>
</linearGradient>
<rect x="-1.3" y="1.8" class="st31" width="1921.3" height="1078.2"/>
<linearGradient id="SVGID_2_" gradientUnits="userSpaceOnUse" x1="959.3615" y1="1080" x2="959.3615" y2="1.7654">
	<stop  offset="0" style="stop-color:#0E2747"/>
	<stop  offset="1" style="stop-color:#0E2747;stop-opacity:0"/>
</linearGradient>
<rect x="-1.3" y="1.8" class="st32" width="1921.3" height="1078.2"/>
</svg>
