<?xml version="1.0" encoding="utf-8"?>
<!-- Generator: Adobe Illustrator 22.1.0, SVG Export Plug-In . SVG Version: 6.00 Build 0)  -->
<svg version="1.1" id="Layer_1" xmlns="http://www.w3.org/2000/svg" xmlns:xlink="http://www.w3.org/1999/xlink" x="0px" y="0px"
	 viewBox="0 0 862 825" style="enable-background:new 0 0 862 825;" xml:space="preserve">
<style type="text/css">
	.st0{fill:none;stroke:#F47E20;stroke-width:8.2836;stroke-linecap:round;stroke-linejoin:round;stroke-miterlimit:10;}
	.st1{fill:#F47E20;}
</style>
<g>
	<g>
		<path class="st0" d="M202.9,303.5"/>
		<path class="st0" d="M8.7,303.5"/>
		<line class="st0" x1="469.5" y1="124.3" x2="469.5" y2="435.5"/>
		<line class="st0" x1="469.5" y1="123.6" x2="632.9" y2="123.6"/>
		<line class="st0" x1="471.1" y1="435.4" x2="632.9" y2="435.4"/>
		<line class="st0" x1="632.6" y1="202.7" x2="551.6" y2="202.7"/>
		<line class="st0" x1="632.9" y1="356.3" x2="551.9" y2="356.3"/>
		<line class="st0" x1="551.6" y1="202.7" x2="551.6" y2="248.2"/>
		<line class="st0" x1="550.8" y1="314.7" x2="550.8" y2="356.3"/>
		<line class="st0" x1="551.6" y1="248.2" x2="632.6" y2="248.2"/>
		<line class="st0" x1="550.8" y1="314.7" x2="632.9" y2="314.7"/>
		<line class="st0" x1="632.9" y1="216.7" x2="632.9" y2="137.7"/>
		<line class="st0" x1="632.9" y1="262.2" x2="632.9" y2="314.7"/>
		<line class="st0" x1="632.9" y1="356.3" x2="632.9" y2="435.4"/>
		<line class="st0" x1="552.4" y1="203.8" x2="582.8" y2="228.2"/>
		<line class="st0" x1="551.2" y1="314.7" x2="583.1" y2="340.3"/>
		<line class="st0" x1="632.9" y1="228.2" x2="582.8" y2="228.2"/>
		<line class="st0" x1="633.2" y1="340.3" x2="583.1" y2="340.3"/>
		<line class="st0" x1="582.8" y1="228.2" x2="582.8" y2="248.2"/>
		<line class="st0" x1="583.1" y1="340.3" x2="583.1" y2="356.3"/>
		<line class="st0" x1="471.1" y1="435.5" x2="502.8" y2="461"/>
		<line class="st0" x1="8.7" y1="121.2" x2="8.7" y2="371.8"/>
		<line class="st0" x1="153.5" y1="121.2" x2="8.7" y2="121.2"/>
		<line class="st0" x1="8.7" y1="435.5" x2="8.7" y2="371.8"/>
		<line class="st0" x1="201.5" y1="435.5" x2="8.7" y2="435.5"/>
		<line class="st0" x1="105.1" y1="315" x2="105.1" y2="435.5"/>
		<line class="st0" x1="202.9" y1="273.4" x2="202.9" y2="435.5"/>
		<path class="st0" d="M202.9,240.9c0-66.2-31.3-119.7-69.9-119.7"/>
		<line class="st0" x1="105.1" y1="234.3" x2="105.1" y2="170.1"/>
		<line class="st0" x1="187.9" y1="258.2" x2="202.9" y2="273.4"/>
		<line class="st0" x1="203" y1="242.1" x2="187.8" y2="257.1"/>
		<line class="st0" x1="201.5" y1="435.5" x2="233.4" y2="461"/>
		<line class="st0" x1="105.1" y1="435.5" x2="137" y2="461"/>
		<line class="st0" x1="8.7" y1="435.5" x2="40.6" y2="461"/>
		<line class="st0" x1="40.6" y1="461" x2="423.3" y2="461"/>
		<path class="st0" d="M202.9,151.9c-11.8-18.5-31.1-30.5-52.8-30.5"/>
		<line class="st0" x1="204.6" y1="435.5" x2="415.9" y2="435.5"/>
		<line class="st0" x1="290" y1="435.5" x2="290" y2="124.3"/>
		<line class="st0" x1="203.5" y1="123.6" x2="289.4" y2="123.6"/>
		<line class="st0" x1="289.9" y1="434.9" x2="321.6" y2="460.3"/>
		<line class="st0" x1="203.5" y1="123.6" x2="203.5" y2="434.8"/>
		<line class="st0" x1="633.2" y1="126.4" x2="633.2" y2="389"/>
		<line class="st0" x1="778" y1="124.1" x2="633.2" y2="124.1"/>
		<line class="st0" x1="632.9" y1="435.4" x2="633.2" y2="389"/>
		<line class="st0" x1="825.5" y1="435.5" x2="632.7" y2="435.5"/>
		<line class="st0" x1="729.6" y1="332.1" x2="729.6" y2="435.5"/>
		<path class="st0" d="M827.5,259.2c0-74.8-31.3-135.1-70-135.1"/>
		<line class="st0" x1="729.6" y1="251.5" x2="729.6" y2="187.3"/>
		<line class="st0" x1="812.3" y1="275.4" x2="827.4" y2="290.6"/>
		<line class="st0" x1="827.5" y1="259.2" x2="812.2" y2="274.3"/>
		<line class="st0" x1="729.1" y1="435.5" x2="761" y2="461"/>
		<line class="st0" x1="632.7" y1="435.5" x2="664.5" y2="461"/>
		<line class="st0" x1="664.5" y1="461" x2="857.8" y2="461"/>
		<path class="st0" d="M857.8,225.5c0-56-37.3-101.3-83.3-101.3"/>
		<line class="st0" x1="827.4" y1="290.6" x2="827.4" y2="436.8"/>
		<line class="st0" x1="857.8" y1="461" x2="857.8" y2="228.6"/>
		<line class="st0" x1="826.1" y1="435.5" x2="857.9" y2="461"/>
		<line class="st0" x1="503.9" y1="461" x2="664.5" y2="461"/>
		<line class="st0" x1="423.3" y1="123.6" x2="287.6" y2="123.6"/>
		<line class="st0" x1="467.4" y1="388.1" x2="467.4" y2="181.1"/>
		<path class="st0" d="M467.4,181.1c0-31.8-23.1-57.6-51.6-57.6"/>
		<path class="st0" d="M408,435.5c32.8,0,59.4-23.8,59.4-53.1"/>
		<path class="st0" d="M416.1,460.8c29.1,0,52.7-23.2,52.7-52"/>
		<line class="st0" x1="341.2" y1="197.7" x2="341.2" y2="371.5"/>
		<line class="st0" x1="341.2" y1="197.7" x2="416.2" y2="197.7"/>
		<line class="st0" x1="416.2" y1="371.5" x2="341.2" y2="371.5"/>
		<line class="st0" x1="416.2" y1="197.7" x2="416.2" y2="371.5"/>
		<line class="st0" x1="341.2" y1="197.7" x2="373" y2="223.2"/>
		<line class="st0" x1="373" y1="223.2" x2="416.2" y2="223.2"/>
		<line class="st0" x1="373" y1="223.2" x2="373" y2="371.5"/>
	</g>
	<g>
		<line class="st0" x1="345.2" y1="791.2" x2="414.4" y2="791.2"/>
		<line class="st0" x1="221.6" y1="791.2" x2="293.5" y2="791.2"/>
		<line class="st0" x1="280.3" y1="557.6" x2="280.3" y2="640.2"/>
		<line class="st0" x1="280.3" y1="557.6" x2="355.4" y2="557.6"/>
		<line class="st0" x1="355.4" y1="557.6" x2="355.4" y2="641.6"/>
		<line class="st0" x1="414.1" y1="480.8" x2="414.4" y2="791.2"/>
		<line class="st0" x1="280.3" y1="557.6" x2="312.1" y2="583"/>
		<line class="st0" x1="413.5" y1="480" x2="426.3" y2="490.3"/>
		<line class="st0" x1="72.5" y1="816" x2="323.7" y2="816.1"/>
		<line class="st0" x1="312.1" y1="583" x2="312.1" y2="640.2"/>
		<line class="st0" x1="312.1" y1="583" x2="355.4" y2="583"/>
		<line class="st0" x1="63.6" y1="480" x2="413.5" y2="480"/>
		<line class="st0" x1="89.7" y1="552.9" x2="89.7" y2="734.7"/>
		<line class="st0" x1="64.1" y1="791.2" x2="220.4" y2="791.2"/>
		<line class="st0" x1="105.6" y1="632.2" x2="223.6" y2="632.2"/>
		<line class="st0" x1="8.7" y1="522.8" x2="8.7" y2="734.7"/>
		<path class="st0" d="M8.7,529.2C8.7,502,33.3,480,63.6,480"/>
		<path class="st0" d="M8.7,734.7c0,31.2,24.7,56.4,55.4,56.4"/>
		<line class="st0" x1="223.6" y1="790.5" x2="255.4" y2="816"/>
		<line class="st0" x1="32.9" y1="781.3" x2="72.5" y2="816"/>
		<line class="st0" x1="105.6" y1="632.2" x2="105.6" y2="695.9"/>
		<line class="st0" x1="105.6" y1="695.9" x2="159.5" y2="695.9"/>
		<line class="st0" x1="159.5" y1="734.7" x2="159.5" y2="695.9"/>
		<line class="st0" x1="89.7" y1="734.7" x2="159.5" y2="734.7"/>
		<line class="st0" x1="89.7" y1="552.9" x2="220.4" y2="552.9"/>
		<line class="st0" x1="89.7" y1="552.9" x2="121.6" y2="578.4"/>
		<line class="st0" x1="105.6" y1="695.9" x2="137.5" y2="721.4"/>
		<line class="st0" x1="121.6" y1="578.4" x2="223.6" y2="578.4"/>
		<line class="st0" x1="121.6" y1="627.3" x2="121.6" y2="578.4"/>
		<line class="st0" x1="121.6" y1="732.8" x2="121.6" y2="708.6"/>
		<line class="st0" x1="137.5" y1="721.4" x2="155" y2="721.4"/>
		<path class="st0" d="M8.7,671.9"/>
		<path class="st0" d="M89.7,671.9"/>
		<line class="st0" x1="413.6" y1="791.4" x2="476.3" y2="791.4"/>
		<line class="st0" x1="454.7" y1="480.6" x2="593.9" y2="480.6"/>
		<line class="st0" x1="476.3" y1="791.4" x2="634.8" y2="791.4"/>
		<line class="st0" x1="634.8" y1="482.1" x2="634.8" y2="791.4"/>
		<line class="st0" x1="485.3" y1="791.4" x2="485.3" y2="580.5"/>
		<line class="st0" x1="563.1" y1="791.4" x2="563.1" y2="580.5"/>
		<path class="st0" d="M634.8,531.7c0-28.2-17.9-51-40-51"/>
		<path class="st0" d="M414.4,531.7c0-28.2,17.4-51,38.9-51"/>
		<line class="st0" x1="634.8" y1="482.1" x2="798.2" y2="482.1"/>
		<line class="st0" x1="636.3" y1="791.3" x2="798.2" y2="791.3"/>
		<line class="st0" x1="798.2" y1="555.4" x2="717.3" y2="555.4"/>
		<line class="st0" x1="798.2" y1="712.2" x2="717.3" y2="712.2"/>
		<line class="st0" x1="717.3" y1="555.4" x2="717.3" y2="618"/>
		<line class="st0" x1="716" y1="670.6" x2="716" y2="712.2"/>
		<line class="st0" x1="717.3" y1="618" x2="798.2" y2="618"/>
		<line class="st0" x1="716" y1="670.6" x2="798.2" y2="670.6"/>
		<line class="st0" x1="798.2" y1="555.4" x2="798.2" y2="482.1"/>
		<line class="st0" x1="798.2" y1="618" x2="798.2" y2="670.6"/>
		<line class="st0" x1="798.2" y1="712.2" x2="798.2" y2="791.3"/>
		<line class="st0" x1="830" y1="580.9" x2="830" y2="507.5"/>
		<line class="st0" x1="798.2" y1="555.4" x2="830" y2="580.9"/>
		<line class="st0" x1="830" y1="816.6" x2="830" y2="737.6"/>
		<line class="st0" x1="798.2" y1="712.2" x2="830" y2="737.6"/>
		<line class="st0" x1="798.2" y1="791.2" x2="830" y2="816.6"/>
		<line class="st0" x1="830" y1="580.9" x2="830" y2="507.5"/>
		<line class="st0" x1="798.2" y1="482.1" x2="830" y2="507.5"/>
		<line class="st0" x1="798.2" y1="555.4" x2="830" y2="580.9"/>
		<line class="st0" x1="798.2" y1="618" x2="830" y2="643.5"/>
		<line class="st0" x1="798.2" y1="670.6" x2="830" y2="696.1"/>
		<line class="st0" x1="830" y1="643.5" x2="830" y2="696.1"/>
		<line class="st0" x1="718" y1="556.5" x2="748.3" y2="580.9"/>
		<line class="st0" x1="716.5" y1="670.6" x2="748.3" y2="696.1"/>
		<line class="st0" x1="830" y1="580.9" x2="748.3" y2="580.9"/>
		<line class="st0" x1="830" y1="696.1" x2="748.3" y2="696.1"/>
		<line class="st0" x1="748.3" y1="580.9" x2="748.3" y2="616.3"/>
		<line class="st0" x1="748.3" y1="696.1" x2="748.3" y2="712.2"/>
		<line class="st0" x1="636.3" y1="791.4" x2="666.2" y2="814.9"/>
		<line class="st0" x1="413.6" y1="790.9" x2="443" y2="816.2"/>
		<line class="st0" x1="485.6" y1="790.9" x2="516" y2="815.4"/>
		<line class="st0" x1="560.9" y1="790.9" x2="592.7" y2="816.5"/>
		<line class="st0" x1="223.6" y1="480" x2="223.6" y2="790.5"/>
		<line class="st0" x1="280.3" y1="641.6" x2="355.4" y2="641.6"/>
		<line class="st0" x1="293.5" y1="791.2" x2="293.5" y2="677.2"/>
		<line class="st0" x1="345.2" y1="677.2" x2="293.5" y2="677.2"/>
		<line class="st0" x1="345.2" y1="677.2" x2="345.2" y2="790.5"/>
		<line class="st0" x1="291.9" y1="790.5" x2="323.7" y2="816"/>
		<line class="st0" x1="346.3" y1="791.4" x2="376.6" y2="816.2"/>
		<line class="st0" x1="293.5" y1="677.2" x2="325.3" y2="702.7"/>
		<line class="st0" x1="341.6" y1="703" x2="325.7" y2="703"/>
		<line class="st0" x1="325.7" y1="705" x2="325.7" y2="816.1"/>
		<line class="st0" x1="830" y1="816.6" x2="376.6" y2="816.2"/>
	</g>
</g>
<g>
	<path class="st1" d="M18.3,53.2C9.7,53.2,5,50.1,5,41.2C5,24.6,18,8.9,48.7,8.9c5.7,0,20.9,3.2,33.5,3.2c6.1,0,11.6-0.7,15-3
		c-3,5.5-4.8,9.1-10.5,37.4c5.4-6.1,10.8-7.2,14.8-7.2c8,0,13.8,4.1,13.8,14.1c0,10-6,25.1-6,32.1c0,3.1,1.2,5.2,5,5.2
		c5.5,0,7.7-4.5,10.5-11h5.2c-6.9,20.4-16.6,23-23.1,23c-10.8,0-14.7-6.9-14.7-14.1c0-8.5,5.6-23.7,5.6-31.7c0-4.1-1.4-6.3-4.5-6.3
		c-4.3,0-7.6,4.9-9.4,10.7c-2.1,10.8-4.6,24.1-7.6,40.6H58.5l17-79.1c-5.1-0.4-10.7-1.3-16.4-2.1L41.7,102H23.7l17.8-82.5
		c-13.9,0.5-25,5.8-25,25.4C16.5,51,18.2,52.1,18.3,53.2z"/>
	<path class="st1" d="M141.5,80.6c0,5,1.4,10.1,7.7,10.1c4.8,0,10.7-3.1,14.7-6.6c-2.6,14.2-11.6,18.4-21.5,18.4
		c-11.6,0-19.3-5.7-19.3-19.8c0-14.2,8.1-43.7,33.5-43.7c11.1,0,13.7,5.7,13.7,11.9c0,14.2-13.7,24.9-28.6,25.7
		C141.6,78,141.5,79.3,141.5,80.6z M157.6,45.7c-6.2,0-12.4,13.5-15,25.1c9.7-0.5,18.1-9.8,18.1-20C160.7,47.7,160,45.7,157.6,45.7z
		"/>
</g>
</svg>
