<?xml version="1.0" encoding="utf-8"?>
<!-- Generator: Adobe Illustrator 22.1.0, SVG Export Plug-In . SVG Version: 6.00 Build 0)  -->
<svg version="1.1" id="Layer_1" xmlns="http://www.w3.org/2000/svg" xmlns:xlink="http://www.w3.org/1999/xlink" x="0px" y="0px"
	 viewBox="0 0 98 48" style="enable-background:new 0 0 98 48;" xml:space="preserve">
<style type="text/css">
	.st0{fill:#0E2747;}
	.st1{fill:#FFFFFF;}
</style>
<g>
	<circle class="st0" cx="78" cy="24" r="17.7"/>
	<circle class="st1" cx="78" cy="24" r="15.3"/>
	<path class="st0" d="M69.7,25c0,0.3,0.3,0.3,0.6,0.3H71c0.6,4.6,4,7.9,8.3,7.9c1.2,0,2.3-0.3,3.3-0.8c0.3-0.1,0.4-0.5,0.3-0.8
		s-0.5-0.4-0.8-0.3c-0.9,0.4-1.8,0.7-2.8,0.7c-3.5,0-6.5-2.8-7.1-6.7h7.3c0.3,0,0.6,0,0.6-0.3s-0.3-0.3-0.6-0.3h-7.4
		c0,0,0-0.3,0-0.7h7.4c0.3,0,0.6-0.3,0.6-0.7c0-0.3-0.3-0.7-0.6-0.7h-7.4c0.5-4,3.5-7,7.1-7c0.7,0,1.5,0.1,2.2,0.4
		c0.3,0.1,0.7-0.1,0.7-0.4c0.1-0.3-0.1-0.7-0.4-0.8c-0.9-0.3-1.8-0.4-2.7-0.4c-4.3,0-7.7,3.5-8.3,8.2H70c-0.3,0-0.6,0.3-0.6,0.7
		c0,0.3,0.3,0.7,0.6,0.7h0.6c0,0.3,0,0.7,0,0.7H70C69.9,24.7,69.7,24.7,69.7,25z"/>
</g>
<g>
	<path class="st1" d="M11.2,28.3V17.2l-1.5-0.3v-1.3H20l0.3,3.3h-1.5L18.1,17h-3.8v4.8h2.4l0.3-1.6h1.4V25H17l-0.3-1.7h-2.4v5h4.2
		l1.2-2.5l1.6,0.4l-0.5,3.5H9.7v-1.2L11.2,28.3z"/>
	<path class="st1" d="M29.7,28.3c-0.2,0.3-0.5,0.5-0.8,0.7c-0.3,0.2-0.7,0.4-1.1,0.6c-0.4,0.1-0.8,0.2-1.2,0.2c-0.8,0-1.5-0.1-2-0.4
		c-0.5-0.3-0.9-0.7-1.1-1.2s-0.4-1.3-0.4-2.3v-5.1l-0.9-0.3v-1.1l3.5-0.4h0l0.4,0.4v6.5c0,0.5,0,1,0.1,1.3c0.1,0.3,0.2,0.5,0.5,0.7
		c0.2,0.1,0.5,0.2,0.9,0.2c0.7,0,1.3-0.2,1.8-0.6v-6.6l-1.2-0.3v-1.4h3.7h0l0.5,0.2v8.8h1v1.2c-0.4,0.1-0.8,0.2-1.1,0.2
		c-0.4,0.1-0.8,0.1-1.2,0.1c-0.5,0-0.8-0.1-1-0.3s-0.3-0.5-0.3-0.9V28.3z"/>
	<path class="st1" d="M35.9,28.4v-7l-1.1-0.4v-1.5l3.1-0.4h0l0.5,0.4v0.5l0,1.5h0c0.1-0.3,0.3-0.6,0.6-1c0.3-0.4,0.7-0.7,1.2-1
		c0.5-0.3,1-0.4,1.6-0.4c0.2,0,0.3,0,0.4,0c0.1,0,0.2,0.1,0.3,0.1v3.3c-0.2-0.2-0.4-0.3-0.7-0.4s-0.5-0.1-0.8-0.1
		c-0.5,0-0.9,0.1-1.3,0.2c-0.4,0.1-0.7,0.3-0.9,0.4v5.7l2.2,0.2v1.2h-6.4v-1.2L35.9,28.4z"/>
	<path class="st1" d="M51.6,19.8c0.8,0.4,1.3,1,1.7,1.8c0.4,0.8,0.6,1.7,0.6,2.8c0,1.2-0.2,2.2-0.7,3c-0.5,0.8-1.1,1.4-1.9,1.8
		s-1.7,0.6-2.7,0.6c-1.1,0-2-0.2-2.7-0.6c-0.8-0.4-1.3-1-1.7-1.8c-0.4-0.8-0.6-1.7-0.6-2.8c0-1.2,0.2-2.1,0.7-2.9
		c0.5-0.8,1.1-1.4,1.9-1.8c0.8-0.4,1.7-0.6,2.7-0.6C49.9,19.2,50.8,19.4,51.6,19.8z M50.2,21.6c-0.3-0.7-0.8-1-1.5-1
		c-0.6,0-1.1,0.3-1.4,0.9s-0.5,1.6-0.5,2.9c0,1.4,0.2,2.4,0.5,3.1c0.3,0.7,0.8,1,1.5,1c0.6,0,1.1-0.3,1.4-0.9
		c0.3-0.6,0.5-1.6,0.5-2.9C50.6,23.3,50.5,22.3,50.2,21.6z"/>
</g>
</svg>
