<?xml version="1.0" encoding="utf-8"?>
<!-- Generator: Adobe Illustrator 22.1.0, SVG Export Plug-In . SVG Version: 6.00 Build 0)  -->
<svg version="1.1" id="Layer_1" xmlns="http://www.w3.org/2000/svg" xmlns:xlink="http://www.w3.org/1999/xlink" x="0px" y="0px"
	 viewBox="0 0 48 48" style="enable-background:new 0 0 48 48;" xml:space="preserve">
<style type="text/css">
	.st0{fill:#0E2747;}
	.st1{fill:#FFFFFF;}
</style>
<g>
	<circle class="st0" cx="28" cy="24" r="17.7"/>
	<circle class="st1" cx="28" cy="24" r="15.3"/>
	<path class="st0" d="M19.7,25c0,0.3,0.3,0.3,0.6,0.3H21c0.6,4.6,4,7.9,8.3,7.9c1.2,0,2.3-0.3,3.3-0.8c0.3-0.1,0.4-0.5,0.3-0.8
		s-0.5-0.4-0.8-0.3c-0.9,0.4-1.8,0.7-2.8,0.7c-3.5,0-6.5-2.8-7.1-6.7h7.3c0.3,0,0.6,0,0.6-0.3s-0.3-0.3-0.6-0.3h-7.4
		c0,0,0-0.3,0-0.7h7.4c0.3,0,0.6-0.3,0.6-0.7c0-0.3-0.3-0.7-0.6-0.7h-7.4c0.5-4,3.5-7,7.1-7c0.7,0,1.5,0.1,2.2,0.4
		c0.3,0.1,0.7-0.1,0.7-0.4c0.1-0.3-0.1-0.7-0.4-0.8c-0.9-0.3-1.8-0.4-2.7-0.4c-4.3,0-7.7,3.5-8.3,8.2H20c-0.3,0-0.6,0.3-0.6,0.7
		c0,0.3,0.3,0.7,0.6,0.7h0.6c0,0.3,0,0.7,0,0.7H20C19.9,24.7,19.7,24.7,19.7,25z"/>
</g>
</svg>
