<?xml version="1.0" encoding="utf-8"?>
<!-- Generator: Adobe Illustrator 22.1.0, SVG Export Plug-In . SVG Version: 6.00 Build 0)  -->
<svg version="1.1" id="Layer_1" xmlns="http://www.w3.org/2000/svg" xmlns:xlink="http://www.w3.org/1999/xlink" x="0px" y="0px"
	 viewBox="0 0 90 48" style="enable-background:new 0 0 90 48;" xml:space="preserve">
<style type="text/css">
	.st0{fill:none;stroke:#FFFFFF;stroke-width:3;stroke-linejoin:round;stroke-miterlimit:10;}
	.st1{fill:#0E2747;}
	.st2{fill:#FFFFFF;}
</style>
<line class="st0" x1="69" y1="7.9" x2="69" y2="1.5"/>
<line class="st0" x1="63.4" y1="1.5" x2="74.6" y2="1.5"/>
<g>
	<circle class="st1" cx="69" cy="24" r="17.7"/>
	<path class="st2" d="M80.8,24.4H84c0-0.3,0-0.3,0-0.4c0-8.3-6.8-15.2-15.1-15.2c-0.1,0-0.1,0-0.2,0V9v3.2c0,0.2-0.1,0.4-0.3,0.4
		c-0.2,0-0.3-0.1-0.3-0.4V9c-7.9,0.4-14.2,7-14.2,15v0.1h3.2c0.2,0,0.4,0.1,0.4,0.3s-0.1,0.3-0.4,0.3h-3.2
		c0.3,7.8,6.5,13.9,14.2,14.4c0-0.1,0-0.1,0-0.2v-3.2c0-0.2,0.1-0.4,0.3-0.4c0.2,0,0.3,0.1,0.3,0.4v3.2c0,0.1,0,0.1,0,0.2
		c0.1,0,0.1,0.1,0.3,0.1c8.1,0,14.7-6.3,15.1-14.4l0,0h-3.2c-0.2,0-0.4,0.1-0.4-0.1C80.4,24.4,80.6,24.4,80.8,24.4z M78,30.6
		c-0.1,0.1-0.3,0.2-0.4,0.2s-0.2,0-0.3-0.1L68,24.4c-0.3-0.1-0.3-0.5-0.1-0.8l0,0v-6.9c0-0.3,0.1-0.6,0.4-0.6s0.4,0.2,0.4,0.6v6.9
		l9.1,6.3C78.2,30,78.2,30.4,78,30.6z"/>
</g>
<g>
	<path class="st2" d="M12.3,19c0.5-1.1,1.3-1.9,2.3-2.5c1-0.6,2.1-0.9,3.4-0.9c2.1,0,3.7,0.6,4.8,1.8c1,1.2,1.6,2.9,1.6,5.1
		c0,1.5-0.3,2.7-0.8,3.8s-1.3,2-2.3,2.6c-1,0.6-2.2,0.9-3.5,0.9c-1.4,0-2.6-0.3-3.5-0.9c-0.9-0.6-1.6-1.4-2.1-2.5
		c-0.4-1.1-0.7-2.3-0.7-3.7S11.8,20.1,12.3,19z M15.7,27.1c0.5,1,1.2,1.4,2.2,1.4c0.6,0,1.2-0.2,1.6-0.7c0.4-0.5,0.8-1.1,1-2
		c0.2-0.9,0.4-2,0.4-3.3c0-1.9-0.3-3.3-0.8-4.2c-0.5-0.9-1.2-1.4-2.2-1.4c-1,0-1.7,0.5-2.2,1.5c-0.5,1-0.8,2.4-0.8,4.4
		C15,24.7,15.2,26.1,15.7,27.1z"/>
	<path class="st2" d="M26.9,28.4v-7l-1.1-0.4v-1.5l3.1-0.4h0l0.5,0.4v0.5l0,1.5h0c0.1-0.3,0.3-0.6,0.6-1c0.3-0.4,0.7-0.7,1.2-1
		c0.5-0.3,1-0.4,1.6-0.4c0.2,0,0.3,0,0.4,0c0.1,0,0.2,0.1,0.3,0.1v3.3c-0.2-0.2-0.4-0.3-0.7-0.4s-0.5-0.1-0.8-0.1
		c-0.5,0-0.9,0.1-1.3,0.2c-0.4,0.1-0.7,0.3-0.9,0.4v5.7l2.2,0.2v1.2h-6.4v-1.2L26.9,28.4z"/>
	<path class="st2" d="M35.3,21.7c0.4-0.8,1-1.4,1.8-1.8s1.7-0.6,2.7-0.6c1.3,0,2.3,0.3,3,0.9c0.7,0.6,1.1,1.5,1.1,2.6
		c0,0.8,0,1.4-0.1,1.8h-6c0.1,1.1,0.4,2,0.8,2.5c0.5,0.6,1.1,0.8,1.9,0.8c0.5,0,1-0.1,1.5-0.2s0.9-0.3,1.2-0.5l0.5,1.2
		c-0.2,0.2-0.5,0.5-1,0.7s-0.9,0.4-1.5,0.6c-0.5,0.2-1.1,0.2-1.7,0.2c-1.2,0-2.1-0.2-2.9-0.7c-0.8-0.4-1.3-1.1-1.7-1.8
		c-0.4-0.8-0.5-1.7-0.5-2.8C34.6,23.4,34.8,22.5,35.3,21.7z M40.9,23.3l0-0.7c0-0.7-0.1-1.2-0.3-1.5s-0.6-0.5-1.1-0.5
		c-0.4,0-0.7,0.1-0.9,0.2c-0.2,0.2-0.4,0.4-0.6,0.8s-0.2,1-0.3,1.7H40.9z"/>
</g>
</svg>
