<?xml version="1.0" encoding="utf-8"?>
<!-- Generator: Adobe Illustrator 22.1.0, SVG Export Plug-In . SVG Version: 6.00 Build 0)  -->
<svg version="1.1" id="Layer_1" xmlns="http://www.w3.org/2000/svg" xmlns:xlink="http://www.w3.org/1999/xlink" x="0px" y="0px"
	 viewBox="0 0 48 48" style="enable-background:new 0 0 48 48;" xml:space="preserve">
<style type="text/css">
	.st0{fill:none;stroke:#FFFFFF;stroke-width:3;stroke-linejoin:round;stroke-miterlimit:10;}
	.st1{fill:#0E2747;}
	.st2{fill:#FFFFFF;}
</style>
<line class="st0" x1="27" y1="7.9" x2="27" y2="1.5"/>
<line class="st0" x1="21.4" y1="1.5" x2="32.6" y2="1.5"/>
<g>
	<circle class="st1" cx="27" cy="24" r="17.7"/>
	<path class="st2" d="M38.8,24.4H42c0-0.3,0-0.3,0-0.4c0-8.3-6.8-15.2-15.1-15.2c-0.1,0-0.1,0-0.2,0V9v3.2c0,0.2-0.1,0.4-0.3,0.4
		s-0.3-0.1-0.3-0.4V9c-7.9,0.4-14.2,7-14.2,15v0.1h3.2c0.2,0,0.4,0.1,0.4,0.3s-0.1,0.3-0.4,0.3h-3.2c0.3,7.8,6.5,13.9,14.2,14.4
		c0-0.1,0-0.1,0-0.2v-3.2c0-0.2,0.1-0.4,0.3-0.4s0.3,0.1,0.3,0.4v3.2c0,0.1,0,0.1,0,0.2c0.1,0,0.1,0.1,0.3,0.1
		c8.1,0,14.7-6.3,15.1-14.4l0,0h-3.2c-0.2,0-0.4,0.1-0.4-0.1C38.4,24.4,38.6,24.4,38.8,24.4z M36,30.6c-0.1,0.1-0.3,0.2-0.4,0.2
		c-0.1,0-0.2,0-0.3-0.1L26,24.4c-0.3-0.1-0.3-0.5-0.1-0.8l0,0v-6.9c0-0.3,0.1-0.6,0.4-0.6s0.4,0.2,0.4,0.6v6.9l9.1,6.3
		C36.2,30,36.2,30.4,36,30.6z"/>
</g>
</svg>
