<?xml version="1.0" encoding="utf-8"?>
<!-- Generator: Adobe Illustrator 19.0.0, SVG Export Plug-In . SVG Version: 6.00 Build 0)  -->
<svg version="1.1" id="Capa_1" xmlns="http://www.w3.org/2000/svg" xmlns:xlink="http://www.w3.org/1999/xlink" x="0px" y="0px"
	 viewBox="0 0 1280 720" style="enable-background:new 0 0 1280 720;" xml:space="preserve">
<style type="text/css">
	.st0{fill:#28285B;}
	.st1{fill:#363636;}
	.st2{fill:#FFF9E9;}
	.st3{fill:#4E4E4E;}
	.st4{opacity:0.8;fill:#F9EA32;}
	.st5{fill:none;stroke:#010202;stroke-width:0.6542;stroke-miterlimit:10;}
	.st6{clip-path:url(#XMLID_18_);fill:#F07E1B;}
	.st7{clip-path:url(#XMLID_18_);fill:#383938;}
	.st8{fill:#F5DFBC;}
	.st9{fill:#383938;}
	.st10{fill:#F07E1B;}
	.st11{fill:#E3E2E2;}
	.st12{clip-path:url(#XMLID_19_);fill:#F07E1B;}
	.st13{clip-path:url(#XMLID_19_);fill:#383938;}
	.st14{fill:#BB7C53;}
	.st15{opacity:0.42;fill:#383938;}
	.st16{opacity:0.14;fill:#FFFFFF;}
	.st17{fill:#653411;}
	.st18{opacity:0.5;fill:#010202;}
	.st19{fill:#E52620;}
	.st20{fill:#9A9999;}
	.st21{fill:none;}
	.st22{clip-path:url(#XMLID_20_);fill:#F07E1B;}
	.st23{clip-path:url(#XMLID_20_);fill:#383938;}
	.st24{fill:none;stroke:#383938;stroke-width:0.5;stroke-miterlimit:10;}
	.st25{clip-path:url(#XMLID_21_);fill:#F07E1B;}
	.st26{clip-path:url(#XMLID_21_);fill:#383938;}
	.st27{clip-path:url(#XMLID_57_);fill:#F07E1B;}
	.st28{clip-path:url(#XMLID_57_);fill:#383938;}
	.st29{clip-path:url(#XMLID_72_);fill:#182844;}
	.st30{clip-path:url(#XMLID_72_);fill:#FFF9E9;}
	.st31{clip-path:url(#XMLID_72_);fill:#F07E1B;}
	.st32{clip-path:url(#XMLID_75_);fill:#F07E1B;}
	.st33{clip-path:url(#XMLID_75_);fill:#383938;}
	.st34{clip-path:url(#XMLID_407_);fill:#383938;}
	.st35{clip-path:url(#XMLID_407_);fill:#4C7CB4;}
	.st36{clip-path:url(#XMLID_407_);}
	.st37{fill:none;stroke:#182844;stroke-linecap:round;stroke-linejoin:round;}
	
		.st38{clip-path:url(#XMLID_407_);fill:none;stroke:#182844;stroke-linecap:round;stroke-linejoin:round;stroke-miterlimit:10;stroke-dasharray:12;}
	.st39{clip-path:url(#XMLID_407_);fill:#182844;}
	.st40{clip-path:url(#XMLID_424_);fill:#F5DFBC;}
	.st41{clip-path:url(#XMLID_424_);fill:#F07E1B;}
	.st42{fill:#010202;}
	.st43{opacity:0.42;fill:#010202;}
	.st44{clip-path:url(#XMLID_427_);fill:#010202;}
	.st45{clip-path:url(#XMLID_428_);fill:#010202;}
	.st46{fill:#FFFFFF;}
	.st47{fill:#182844;}
	.st48{fill:#F0D4B6;}
	.st49{fill:#828383;}
	.st50{fill:none;stroke:#010202;stroke-width:4;stroke-miterlimit:10;}
	.st51{fill:none;stroke:#182844;stroke-width:0.5;stroke-linecap:round;stroke-miterlimit:10;}
	.st52{opacity:0.4;}
	.st53{fill:#2EABE2;}
	.st54{fill:#FFFFFF;stroke:#010202;stroke-width:0.1;stroke-miterlimit:10;}
</style>
<g>
	<rect id="XMLID_405_" x="-1" y="-79.4" class="st0" width="1346.1" height="747.3"/>
</g>
<g>
	<g>
		<g>
			<path id="XMLID_404_" class="st1" d="M616.9,720"/>
		</g>
	</g>
</g>
<circle id="XMLID_403_" class="st2" cx="588.1" cy="122.1" r="0.7"/>
<circle id="XMLID_402_" class="st2" cx="298" cy="100.9" r="0.7"/>
<circle id="XMLID_401_" class="st2" cx="515.2" cy="100.9" r="0.7"/>
<circle id="XMLID_400_" class="st2" cx="478.5" cy="78.8" r="1"/>
<circle id="XMLID_399_" class="st2" cx="480.5" cy="115.8" r="1"/>
<circle id="XMLID_398_" class="st2" cx="283.7" cy="68.8" r="1"/>
<circle id="XMLID_397_" class="st2" cx="627.2" cy="70.3" r="1"/>
<circle id="XMLID_396_" class="st2" cx="403" cy="102.6" r="1"/>
<circle id="XMLID_395_" class="st2" cx="348.6" cy="70.8" r="1"/>
<circle id="XMLID_394_" class="st2" cx="555.6" cy="41.2" r="1"/>
<ellipse id="XMLID_393_" class="st2" cx="329.8" cy="56.4" rx="0.3" ry="1"/>
<circle id="XMLID_392_" class="st2" cx="380.1" cy="86.2" r="0.3"/>
<circle id="XMLID_391_" class="st2" cx="471.5" cy="57.1" r="0.3"/>
<circle id="XMLID_390_" class="st2" cx="380.8" cy="67.7" r="0.3"/>
<circle id="XMLID_389_" class="st2" cx="347" cy="112.1" r="0.3"/>
<circle id="XMLID_388_" class="st2" cx="462.2" cy="57.1" r="0.3"/>
<circle id="XMLID_387_" class="st2" cx="257.2" cy="135.1" r="0.3"/>
<circle id="XMLID_386_" class="st2" cx="396" cy="78.9" r="0.3"/>
<circle id="XMLID_385_" class="st2" cx="421.2" cy="47.8" r="0.3"/>
<circle id="XMLID_384_" class="st2" cx="563.6" cy="50.5" r="0.3"/>
<circle id="XMLID_383_" class="st2" cx="424.8" cy="100.6" r="0.3"/>
<circle id="XMLID_382_" class="st2" cx="330.4" cy="143.2" r="0.3"/>
<circle id="XMLID_381_" class="st2" cx="305.9" cy="50.5" r="0.3"/>
<circle id="XMLID_380_" class="st2" cx="299.3" cy="104.8" r="0.3"/>
<circle id="XMLID_379_" class="st2" cx="367.5" cy="175.7" r="0.3"/>
<circle id="XMLID_378_" class="st2" cx="290" cy="146.5" r="0.3"/>
<circle id="XMLID_377_" class="st2" cx="315.2" cy="122" r="0.3"/>
<circle id="XMLID_376_" class="st2" cx="538.7" cy="67.5" r="0.3"/>
<circle id="XMLID_375_" class="st2" cx="577.2" cy="100.6" r="0.3"/>
<circle id="XMLID_374_" class="st2" cx="601" cy="82.1" r="0.3"/>
<rect id="XMLID_373_" x="270.1" y="263.2" class="st3" width="321.8" height="96.3"/>
<polygon id="XMLID_372_" class="st4" points="293.3,221.2 349.8,361.5 257.1,354 "/>
<polygon id="XMLID_371_" class="st4" points="478.6,236.8 422.2,377.1 514.9,369.6 "/>
<path id="XMLID_370_" class="st5" d="M213.2,356"/>
<path id="XMLID_369_" class="st5" d="M377.4,356"/>
<path id="XMLID_368_" class="st5" d="M213.2,356"/>
<path id="XMLID_367_" class="st5" d="M541.7,356"/>
<path id="XMLID_366_" class="st5" d="M377.4,356"/>
<path id="XMLID_365_" class="st5" d="M541.7,356"/>
<g>
	<defs>
		<circle id="XMLID_362_" cx="296.6" cy="332.8" r="33.2"/>
	</defs>
	<clipPath id="XMLID_18_">
		<use xlink:href="#XMLID_362_"  style="overflow:visible;"/>
	</clipPath>
	<path id="XMLID_364_" class="st6" d="M321.8,339.4"/>
	<path id="XMLID_363_" class="st7" d="M329.2,347.6c-0.6-6.6-6.4-8.4-7.5-8.6c-4.4-1.2-22.9-0.7-35.8-0.2
		c-6.4,0.3-11.8,0.7-12.8,0.7c-8.3,0-8.1,31.5-8.1,31.5l8.4-0.5c0.9,10.8,1.8,20.4,1.9,20.8c1.3,10.4,41.7,11.8,43.8,0.7
		c0.9-4.7,2-14.6,2.9-24.6l4.6-0.3C326.4,367.1,329.8,354.8,329.2,347.6z"/>
</g>
<g>
	<path id="XMLID_361_" class="st8" d="M305.9,330.1c-0.7-0.9-1-6.5-1-6.5c0-0.2,0-0.3-0.1-0.5c0,0-1-3.9-5.8-3.5
		c-6.9,0.5-6.4,4.1-6.4,4.1c-0.2,1,0.2,3.1,0.9,6.1c1.9,8-7.5,8.4-7.8,9.1c-0.2,0.6,9.4,4.2,15.1,3.5c5.3-0.6,6.8-3.3,7-4.2
		c0-0.1-5.1-0.5-5.1-0.6c0,0-1.7,0.5-2.2-2.3c1.4,0.3,2.9,0,2.9,0c0.9-0.2,1.7-3.9,1.7-4.4C305.2,330.4,306.4,330.7,305.9,330.1z"/>
	<path id="XMLID_360_" class="st9" d="M299.7,335.2c0.6,0,1.2,0.1,1,0.1c0.2,1,0.5,1.6,0.9,1.9c0,0,0,0,0,0
		C299.5,336,298.3,335.3,299.7,335.2z"/>
</g>
<circle id="XMLID_359_" class="st10" cx="289.1" cy="319" r="3.2"/>
<path id="XMLID_358_" class="st10" d="M304.9,322.9c0,0,0.6-1.7,0.3-3.4c-0.2-1.3-2.6-5.7-11.9-2s0.5,17.5,0.5,17.5s6-3.8,5.2-7.8
	C298.1,323.6,301.2,322.9,304.9,322.9z"/>
<path id="XMLID_357_" class="st11" d="M310.6,338.2"/>
<g>
	<defs>
		<circle id="XMLID_354_" cx="478.6" cy="330.8" r="39.7"/>
	</defs>
	<clipPath id="XMLID_19_">
		<use xlink:href="#XMLID_354_"  style="overflow:visible;"/>
	</clipPath>
	<path id="XMLID_356_" class="st12" d="M448.4,338.7"/>
	<path id="XMLID_355_" class="st13" d="M439.6,348.5c0.7-7.8,7.6-10,9-10.3c5.2-1.4,27.4-0.9,42.9-0.2c7.6,0.3,14.2,0.9,15.3,0.9
		c9.9,0,9.7,37.7,9.7,37.7l-10-0.6c-1,13-2.2,24.5-2.2,24.8c-1.6,12.4-49.9,14.1-52.4,0.9c-1.1-5.7-2.4-17.5-3.4-29.4l-5.5-0.3
		C442.9,371.8,438.9,357.1,439.6,348.5z"/>
</g>
<path id="XMLID_353_" class="st11" d="M461.8,337.2"/>
<path id="XMLID_352_" class="st9" d="M467.7,317.4c0,0,0.4,4-2.3,6.9c-2.7,2.8-3.1,3.7,0.3,7c3.5,3.3,5.6,5.1,6.6,7.4
	c1,2.3,4.5,1,6.9,0.1c2.4-0.9,5.5,0.6,7.7-2.8c2.3-3.4-0.9-13.2-0.9-13.2s-3.7-4.3-7-4.3S467.7,317.4,467.7,317.4z"/>
<g>
	<path id="XMLID_351_" class="st14" d="M467.4,327.6c0.8-1.1,1.2-7.8,1.2-7.8c0-0.2,0-0.4,0.1-0.6c0,0,1.2-4.6,7-4.2
		c8.3,0.6,7.7,4.9,7.7,4.9c0.3,1.2-0.2,3.7-1.1,7.3c-2.3,9.6,9,10.1,9.3,10.9c0.3,0.7-11.2,5-18.1,4.2c-6.4-0.8-8.1-3.9-8.4-5.1
		c0-0.2,6.1-0.6,6.1-0.8c0,0,2.1,0.6,2.6-2.7c-1.7,0.3-3.4,0-3.4,0c-1-0.3-2.1-4.7-2.1-5.3C468.2,327.9,466.9,328.3,467.4,327.6z"/>
	<path id="XMLID_350_" class="st9" d="M474.9,333.6c-0.7,0-1.4,0.1-1.8,0.2c0,0,0,0,0,0c0.2,0,0.5-0.1,0.7-0.1
		c-0.2,1.2-0.6,1.9-1.1,2.3v0C475.1,334.7,476.5,333.7,474.9,333.6z"/>
</g>
<path id="XMLID_349_" class="st9" d="M468.6,319.2c0,0,0.4-1.4-1.1-1.8c-1.5-0.4-2.2-3-0.9-4.4c1.3-1.4,3.6,0.8,5.6-2.1
	s2.7-1.1,6.2-0.6c3.5,0.4,6.7,3.7,8.4,3c1.8-0.7-1.4,6,1.4,7.6c2.8,1.6,2.8,7.3,1.3,8.5c-1.4,1.2-3.5,5.5-2.5,6.6
	c1,1.1-5.9,3.2-6.9,2c-1-1.2-7.8-11.6-4.4-13.5S471.9,317.4,468.6,319.2z"/>
<rect id="XMLID_348_" x="290.8" y="127.5" class="st9" width="53.8" height="79.2"/>
<path class="st10" d="M249.8,120.6v547.3h366.1V120.6H249.8z M327.7,345.4H274v-79.5h53.7V345.4z M411.7,346.6h-53.8v-79.2h53.8
	V346.6z M495.4,346.6h-53.8v-79.2h53.8V346.6z M579.2,346.6h-53.8v-79.2h53.8V346.6z"/>
<rect id="XMLID_342_" x="271.4" y="259.2" class="st15" width="60.4" height="6.8"/>
<path id="XMLID_341_" class="st15" d="M265.2,256.4l35.6-22.1c0.5-0.3,1.1-0.3,1.6,0l35.6,22.1c1.3,0.8,0.7,2.7-0.8,2.7H266
	C264.5,259.2,264,257.2,265.2,256.4z"/>
<path id="XMLID_340_" class="st15" d="M335,259.2h-61.6c-1.5,0-2-1.9-0.8-2.7l29-18.1"/>
<rect id="XMLID_339_" x="355.1" y="260.5" class="st15" width="60.4" height="6.8"/>
<path id="XMLID_338_" class="st15" d="M349,257.8l35.6-22.1c0.5-0.3,1.1-0.3,1.6,0l35.6,22.1c1.3,0.8,0.7,2.7-0.8,2.7h-71.1
	C348.3,260.5,347.8,258.5,349,257.8z"/>
<path id="XMLID_337_" class="st15" d="M418.7,260.5h-61.6c-1.5,0-2-1.9-0.8-2.7l29-18.1"/>
<rect id="XMLID_336_" x="438.9" y="260.5" class="st15" width="60.4" height="6.8"/>
<path id="XMLID_335_" class="st15" d="M432.8,257.8l35.6-22.1c0.5-0.3,1.1-0.3,1.6,0l35.6,22.1c1.3,0.8,0.7,2.7-0.8,2.7h-71.1
	C432.1,260.5,431.5,258.5,432.8,257.8z"/>
<path id="XMLID_334_" class="st15" d="M502.5,260.5h-61.6c-1.5,0-2-1.9-0.8-2.7l29-18.1"/>
<rect id="XMLID_333_" x="522.7" y="260.5" class="st15" width="60.4" height="6.8"/>
<path id="XMLID_332_" class="st15" d="M516.6,257.8l35.6-22.1c0.5-0.3,1.1-0.3,1.6,0l35.6,22.1c1.3,0.8,0.7,2.7-0.8,2.7h-71.1
	C515.9,260.5,515.3,258.5,516.6,257.8z"/>
<path id="XMLID_331_" class="st15" d="M586.3,260.5h-61.6c-1.5,0-2-1.9-0.8-2.7l29-18.1"/>
<rect id="XMLID_330_" x="271.4" y="345.2" class="st15" width="60.4" height="6.8"/>
<rect id="XMLID_329_" x="355.1" y="346.5" class="st15" width="60.4" height="6.8"/>
<rect id="XMLID_328_" x="438.9" y="346.5" class="st15" width="60.4" height="6.8"/>
<rect id="XMLID_327_" x="522.7" y="346.5" class="st15" width="60.4" height="6.8"/>
<rect id="XMLID_326_" x="270.1" y="472.4" class="st16" width="206.9" height="157.8"/>
<rect id="XMLID_325_" x="489.1" y="474.6" class="st17" width="115.6" height="192.9"/>
<rect id="XMLID_324_" x="270.1" y="472.6" class="st18" width="207.3" height="157.7"/>
<rect id="XMLID_323_" x="270.1" y="589.1" class="st9" width="207" height="41.1"/>
<circle id="XMLID_322_" class="st2" cx="368.1" cy="78.1" r="0.9"/>
<circle id="XMLID_321_" class="st2" cx="297.3" cy="84.7" r="0.3"/>
<circle id="XMLID_320_" class="st2" cx="384.6" cy="157.3" r="0.3"/>
<circle id="XMLID_319_" class="st2" cx="340.4" cy="97.7" r="0.6"/>
<circle id="XMLID_318_" class="st2" cx="370" cy="89.6" r="0.6"/>
<circle id="XMLID_317_" class="st2" cx="477.1" cy="113.5" r="0.6"/>
<circle id="XMLID_316_" class="st2" cx="498.8" cy="78.8" r="0.6"/>
<circle id="XMLID_315_" class="st2" cx="537.5" cy="96.4" r="0.6"/>
<circle id="XMLID_314_" class="st2" cx="427.5" cy="78.2" r="0.6"/>
<polygon id="XMLID_313_" class="st19" points="250.3,116.4 242.6,108.7 242.6,124.9 623,124.9 623,108.4 615.9,115.5 "/>
<rect id="XMLID_312_" x="275.1" y="149.6" class="st9" width="133.8" height="52.3"/>
<rect id="XMLID_311_" x="443" y="150" class="st9" width="133.8" height="52.3"/>
<circle id="XMLID_310_" class="st2" cx="709.1" cy="41.9" r="0.7"/>
<circle id="XMLID_309_" class="st2" cx="939.5" cy="49.8" r="0.7"/>
<circle id="XMLID_308_" class="st2" cx="1050.8" cy="51.2" r="0.7"/>
<rect id="XMLID_307_" x="1009.1" y="42.6" class="st2" width="0" height="0"/>
<ellipse id="XMLID_306_" class="st2" cx="1010.1" cy="33.3" rx="1" ry="0"/>
<ellipse id="XMLID_305_" class="st2" cx="965" cy="50.5" rx="1" ry="0"/>
<circle id="XMLID_304_" class="st2" cx="620.8" cy="34.3" r="1"/>
<circle id="XMLID_303_" class="st2" cx="533.4" cy="42.2" r="1"/>
<circle id="XMLID_302_" class="st2" cx="957.1" cy="44.2" r="1"/>
<circle id="XMLID_301_" class="st2" cx="853.8" cy="26.3" r="1"/>
<circle id="XMLID_300_" class="st2" cx="765.1" cy="13.1" r="1"/>
<circle id="XMLID_299_" class="st2" cx="581" cy="62.1" r="1"/>
<circle id="XMLID_298_" class="st2" cx="622.1" cy="61.4" r="0.3"/>
<circle id="XMLID_297_" class="st2" cx="681.7" cy="52.2" r="0.3"/>
<circle id="XMLID_296_" class="st2" cx="692.3" cy="15.1" r="0.3"/>
<circle id="XMLID_295_" class="st2" cx="878.3" cy="49.5" r="0.3"/>
<circle id="XMLID_294_" class="st2" cx="895.5" cy="27.7" r="0.3"/>
<circle id="XMLID_293_" class="st2" cx="931.3" cy="42.9" r="0.3"/>
<circle id="XMLID_292_" class="st2" cx="551.2" cy="16.4" r="0.3"/>
<circle id="XMLID_291_" class="st2" cx="578.4" cy="25.7" r="0.3"/>
<circle id="XMLID_290_" class="st2" cx="901.5" cy="25.7" r="0.3"/>
<circle id="XMLID_289_" class="st2" cx="868.4" cy="17.1" r="0.3"/>
<circle id="XMLID_288_" class="st2" cx="682" cy="440.5" r="0.7"/>
<ellipse id="XMLID_287_" class="st2" cx="775.9" cy="158" rx="1" ry="0"/>
<rect id="XMLID_286_" x="644.9" y="101.4" class="st20" width="418.4" height="57.1"/>
<polygon id="XMLID_285_" class="st4" points="692.9,85 659,163.6 705,155.4 "/>
<polygon id="XMLID_284_" class="st4" points="757.1,82.7 791,161.3 745.1,153.2 "/>
<polygon id="XMLID_283_" class="st4" points="861.9,84.1 828,162.6 873.9,154.5 "/>
<polygon id="XMLID_282_" class="st4" points="1021,87.7 987.1,166.2 1033,158.1 "/>
<polygon id="XMLID_281_" class="st4" points="924.4,88.9 958.3,167.4 912.4,159.3 "/>
<path id="XMLID_280_" class="st5" d="M703.8,357.7"/>
<line id="XMLID_279_" class="st21" x1="786.6" y1="407.9" x2="786.6" y2="409.9"/>
<g>
	<defs>
		<circle id="XMLID_276_" cx="936.9" cy="138" r="40.2"/>
	</defs>
	<clipPath id="XMLID_20_">
		<use xlink:href="#XMLID_276_"  style="overflow:visible;"/>
	</clipPath>
	<path id="XMLID_278_" class="st22" d="M967.5,145.9"/>
	<path id="XMLID_277_" class="st23" d="M976.5,155.8c-0.7-7.9-7.8-10.2-9.1-10.5c-5.3-1.5-27.8-0.9-43.5-0.2
		c-7.8,0.3-14.4,0.9-15.5,0.9c-10.1,0-9.8,38.2-9.8,38.2l10.1-0.6c1,13.2,2.2,24.8,2.3,25.2c1.6,12.6,50.6,14.3,53.1,0.9
		c1.1-5.8,2.4-17.8,3.5-29.8l5.5-0.4C973.1,179.5,977.2,164.6,976.5,155.8z"/>
</g>
<path id="XMLID_275_" class="st11" d="M956,144.5"/>
<path id="XMLID_274_" class="st9" d="M947.4,135.6c0,0,1.5,0.8,1.3,1.2s-1.4,3.8-1.9,3.9c-0.6,0.1-1.5,0.2-1.6-0.9
	c-0.1-1.1,0.1-3.6,0.5-3.9C946.2,135.6,947.4,135.6,947.4,135.6z"/>
<g>
	<path id="XMLID_273_" class="st8" d="M948.3,134.7c-0.8-1.1-1.2-7.9-1.2-7.9c0-0.2,0-0.4-0.1-0.6c0,0-1.2-4.7-7.1-4.3
		c-8.4,0.6-7.8,5-7.8,5c-0.3,1.3,0.2,3.8,1.1,7.4c2.3,9.7-9.1,10.2-9.5,11.1c-0.3,0.7,11.4,5.1,18.4,4.2c6.5-0.8,8.2-4,8.6-5.1
		c0-0.2-6.2,0.2-6.2,0c0,0-2.1-0.2-2.6-3.5c1.7,0.3,3.5,0,3.5,0c1.1-0.3,2.1-4.8,2.1-5.4C947.4,135,948.8,135.3,948.3,134.7z"/>
	<path id="XMLID_272_" class="st9" d="M940.7,140.8c0.8,0,1.4,0.1,1.9,0.2c0,0,0,0,0,0c-0.2,0-0.5-0.1-0.7-0.1
		c0.2,1.2,0.6,1.9,1.1,2.3v0C940.5,141.8,939.1,140.9,940.7,140.8z"/>
</g>
<ellipse id="XMLID_271_" class="st24" cx="945.8" cy="130.3" rx="0.9" ry="1.7"/>
<ellipse id="XMLID_270_" class="st24" cx="948.5" cy="130.3" rx="0.9" ry="1.7"/>
<path id="XMLID_269_" class="st24" d="M944.8,130.3c0,0-8.8-1.6-8.8,0.4"/>
<line id="XMLID_268_" class="st24" x1="946.7" y1="130.3" x2="947.6" y2="130.3"/>
<path id="XMLID_267_" class="st9" d="M947.2,136.9c0,0-1.3,0.8-0.7,2.2c0,0,0,0.1,0,0.1c0,0,0.5,0.2,0.5,0.5c0,0.2,0.5,1.3-1.3,1.5
	c-1.8,0.1-7.5,1.2-8.3,0c-0.8-1.2-3.8-2.3-4.1-5.6c-0.3-3.4-0.9-3.7-1.1-4.8c-0.2-1.1,1.2-2.5,2.3-2.2s3.8,0.3,4,1.7
	c0.2,1.4,1.7,4.9,9,5.4C948.5,136.3,947.2,136.9,947.2,136.9z"/>
<path id="XMLID_266_" class="st8" d="M947.2,136.9c0,0,0.7,1.3-0.7,2.3"/>
<g>
	<defs>
		<circle id="XMLID_263_" cx="691.9" cy="138.2" r="42.3"/>
	</defs>
	<clipPath id="XMLID_21_">
		<use xlink:href="#XMLID_263_"  style="overflow:visible;"/>
	</clipPath>
	<path id="XMLID_265_" class="st25" d="M659.7,146.5"/>
	<path id="XMLID_264_" class="st26" d="M650.3,157c0.7-8.4,8.1-10.7,9.6-11c5.6-1.5,29.2-0.9,45.7-0.2c8.1,0.4,15.1,0.9,16.3,0.9
		c10.6,0,10.3,40.2,10.3,40.2l-10.7-0.7c-1.1,13.8-2.3,26.1-2.4,26.5c-1.7,13.2-53.2,15-55.8,0.9c-1.1-6.1-2.6-18.7-3.7-31.3
		l-5.8-0.4C653.9,181.9,649.6,166.2,650.3,157z"/>
</g>
<g id="Cravatta">
	<path id="XMLID_262_" class="st10" d="M699.1,143.2l-8.4,5.9l-5.9-5l-2.6,0.3l8.5,7.7c0,0,10.5-7.6,10.5-7.9
		C701,144.3,699.1,143.2,699.1,143.2z"/>
	
		<rect id="XMLID_261_" x="688.6" y="149.9" transform="matrix(-0.7071 0.7071 -0.7071 -0.7071 1286.5554 -228.9748)" class="st10" width="4.2" height="4.2"/>
	<path id="XMLID_260_" class="st10" d="M690.6,152.9c0,0,2-0.6,2-0.6l1.6,5.2l-1,16.1l-3.1,4.6l-2.4-5l-1.4-16.2l2.3-4.9
		c0,0,1.7,0.8,1.7,0.8"/>
</g>
<path id="XMLID_259_" class="st11" d="M674,145"/>
<g>
	<path id="XMLID_258_" class="st8" d="M680,134.7c0.9-1.1,1.3-8.3,1.3-8.3c0-0.2,0-0.4,0.1-0.7c0,0,1.3-4.9,7.4-4.5
		c8.8,0.7,8.2,5.2,8.2,5.2c0.3,1.3-0.3,4-1.2,7.8c-2.4,10.2,9.6,10.7,9.9,11.7c0.3,0.8-12,5.3-19.3,4.4c-6.8-0.8-8.7-4.2-9-5.4
		c0-0.2,6.5-0.7,6.5-0.8c0,0,2.2,0.6,2.8-2.9c-1.8,0.3-3.7,0-3.7,0c-1.1-0.3-2.2-5-2.2-5.6C680.9,135.1,679.4,135.4,680,134.7z"/>
	<path id="XMLID_257_" class="st9" d="M687.9,141.2c-0.8,0-1.5,0.2-1.2,0.1c-0.2,1.3-0.6,2-1.1,2.4v0
		C688.2,142.3,689.7,141.3,687.9,141.2z"/>
</g>
<path id="XMLID_256_" class="st9" d="M685.4,125.5c0,0-8.8,1.1-8.8-3.3c0-4.4,8.7-2.1,13.6-2.1c4.9,0,10.5,1,10.5,5.5
	s2,13.1-5.1,13.1s-6.8-4.3-4.8-9.6C692,125.9,688,125.4,685.4,125.5z"/>
<g>
	<defs>
		<circle id="XMLID_253_" cx="852.8" cy="140.8" r="31"/>
	</defs>
	<clipPath id="XMLID_57_">
		<use xlink:href="#XMLID_253_"  style="overflow:visible;"/>
	</clipPath>
	<path id="XMLID_255_" class="st27" d="M829.2,147"/>
	<path id="XMLID_254_" class="st28" d="M822.3,154.6c0.5-6.1,6-7.8,7-8c4.1-1.1,21.4-0.7,33.5-0.2c6,0.3,11,0.7,11.9,0.7
		c7.8,0,7.5,29.4,7.5,29.4l-7.8-0.5c-0.8,10.1-1.7,19.1-1.7,19.4c-1.3,9.7-39,11-40.9,0.7c-0.8-4.4-1.9-13.7-2.7-22.9l-4.3-0.3
		C824.9,172.8,821.8,161.4,822.3,154.6z"/>
</g>
<path id="XMLID_252_" class="st11" d="M839.6,145.8"/>
<g>
	<defs>
		<circle id="XMLID_248_" cx="852.8" cy="140.8" r="31"/>
	</defs>
	<clipPath id="XMLID_72_">
		<use xlink:href="#XMLID_248_"  style="overflow:visible;"/>
	</clipPath>
	<path id="XMLID_251_" class="st29" d="M822.3,154.6c0.5-6.1,6-7.8,7-8c4.1-1.1,21.4-0.7,33.5-0.2c6,0.3,11,0.7,11.9,0.7
		c7.8,0,7.5,29.4,7.5,29.4l-7.8-0.5c-0.8,10.1-1.7,19.1-1.7,19.4c-1.3,9.7-39,11-40.9,0.7c-0.8-4.4-1.9-13.7-2.7-22.9l-4.3-0.3
		C824.9,172.8,821.8,161.4,822.3,154.6z"/>
	<polygon id="XMLID_250_" class="st30" points="852.8,165 857.1,158.6 852.8,152.3 848.5,158.6 	"/>
	<polygon id="XMLID_249_" class="st31" points="852.8,177.6 857.1,171.3 852.8,165 848.5,171.3 	"/>
</g>
<path id="XMLID_247_" class="st10" d="M843.8,129.4c-0.2,0.4-0.6,10.1-5.8,9.1c-5.2-1-1.5,3.1-4.3,7.4c0,0,3.5-0.1,7.4-0.1
	c5.8,0.1,12.8,0.2,13.1,0.2c1.5-1.7,0.8-5.1-1.7-8.9C849.9,133.4,843.8,129.4,843.8,129.4z"/>
<g>
	<path id="XMLID_246_" class="st8" d="M844,138.3c0.6-0.8,0.9-6.1,0.9-6.1c0-0.2,0-0.3,0.1-0.5c0,0,0.9-3.6,5.4-3.3
		c6.5,0.5,6,3.8,6,3.8c0.2,1-0.2,2.9-0.9,5.7c-1.8,7.5,7,7.9,7.3,8.5c0.2,0.6-8.8,3.9-14.1,3.2c-5-0.6-6.3-3.1-6.6-3.9
		c0-0.1,4.7-0.5,4.7-0.6c0,0,1.6,0.4,2-2.1c-1.3,0.3-2.7,0-2.7,0c-0.8-0.2-1.6-3.7-1.6-4.1C844.7,138.6,843.6,138.8,844,138.3z"/>
	<path id="XMLID_245_" class="st9" d="M849.8,143c-0.6,0-1.1,0.1-0.9,0.1c-0.2,0.9-0.5,1.5-0.8,1.8v0
		C850,143.8,851.1,143.1,849.8,143z"/>
</g>
<path id="XMLID_244_" class="st10" d="M843.5,131.7c0,0,5.6,2.2,5.6,5.5c0,3.3,4.2,5.7,3.3,8.6s4.7,9.4,10.1,8.4
	c5.5-0.9,15.7-1.5,14.3-7.7c-1.4-6.2-18.4-12.7-22-17.7S841.6,128.1,843.5,131.7z"/>
<g>
	<defs>
		<circle id="XMLID_241_" cx="767.4" cy="137.4" r="34.8"/>
	</defs>
	<clipPath id="XMLID_75_">
		<use xlink:href="#XMLID_241_"  style="overflow:visible;"/>
	</clipPath>
	<path id="XMLID_243_" class="st32" d="M793.9,144.3"/>
	<path id="XMLID_242_" class="st33" d="M801.6,152.8c-0.6-6.9-6.7-8.8-7.9-9c-4.6-1.3-24-0.8-37.6-0.2c-6.7,0.3-12.4,0.8-13.4,0.8
		c-8.7,0-8.5,33.1-8.5,33.1l8.8-0.6c0.9,11.4,1.9,21.5,2,21.8c1.4,10.9,43.8,12.4,46,0.8c0.9-5,2.1-15.4,3-25.8l4.8-0.3
		C798.7,173.3,802.2,160.4,801.6,152.8z"/>
</g>
<g>
	<defs>
		<circle id="XMLID_234_" cx="768" cy="137.4" r="34.8"/>
	</defs>
	<clipPath id="XMLID_407_">
		<use xlink:href="#XMLID_234_"  style="overflow:visible;"/>
	</clipPath>
	<path id="XMLID_240_" class="st34" d="M802.2,152.8c-0.6-6.9-6.7-8.8-7.9-9c-4.6-1.3-24-0.8-37.6-0.2c-6.7,0.3-12.4,0.8-13.4,0.8
		c-8.7,0-8.5,33.1-8.5,33.1l8.8-0.6c0.9,11.4,1.9,21.5,2,21.8c1.4,10.9,43.8,12.4,46,0.8c0.9-5,2.1-15.4,3-25.8l4.8-0.3
		C799.3,173.3,802.9,160.4,802.2,152.8z"/>
	<path id="XMLID_239_" class="st35" d="M783.8,143.1c0,0,0.7,14.7-14.4,14.7s-14.9-13.2-14.9-14l-8.9,0.4c0,0,1,16.2-3.8,16.2
		c-4.8,0,0.7,19.2,0.7,19.6s52.6-1.3,52.6-1.3l-0.3-18.9c0,0-2.7-11.3-2.7-16.1C792.1,143.5,789.4,142.9,783.8,143.1"/>
	<g id="XMLID_238_" class="st36">
		<g id="XMLID_25_">
			<path id="XMLID_30_" class="st37" d="M790.6,143.6c0,0,0.2,2.7,0.6,6"/>
			<path id="XMLID_29_" class="st37" d="M792,155.1c0.5,2.4,1.1,4.5,1.9,5.6"/>
		</g>
	</g>
	<path id="XMLID_237_" class="st38" d="M785.4,143.4c0,0-0.8,18.1-17.5,17c-16.6-1.1-16.8-16.3-16.8-16.3"/>
	<path id="XMLID_236_" class="st38" d="M746.8,144.2c0,0,1.6,14.8-4,17.2"/>
	<polygon id="XMLID_235_" class="st39" points="758,175.1 758,167.5 780.3,167.5 780.3,177 758,177 	"/>
</g>
<path id="XMLID_233_" class="st9" d="M776.2,125.3c-0.6,5.1,8.7,11.6,8.7,12c1.3,0.4-8.1,4.8-9.3,7.1c-1.3,2.2-5.7-3.4-6.3-5.4
	C768.6,137,777.1,118.1,776.2,125.3z"/>
<path id="XMLID_232_" class="st9" d="M758.2,153.2"/>
<g>
	<path id="XMLID_231_" class="st8" d="M777.2,134.5c-0.7-0.9-1.1-6.9-1.1-6.9c0-0.2,0-0.4-0.1-0.6c0,0-1-4.1-6.1-3.7
		c-7.3,0.5-6.8,4.3-6.8,4.3c-0.2,1.1,0.2,3.3,1,6.4c2,8.4-7.9,8.8-8.2,9.6c-0.2,0.6,9.9,4.4,15.9,3.7c5.6-0.7,7.1-3.5,7.4-4.4
		c0-0.1-5.3-0.5-5.3-0.7c0,0-1.8,0.5-2.3-2.4c1.5,0.3,3,0,3,0c0.9-0.3,1.8-4.1,1.8-4.6C776.5,134.8,777.7,135.1,777.2,134.5z"/>
	<path id="XMLID_230_" class="st9" d="M770.6,139.8c0.7,0,1.2,0.1,1,0.1c0.2,1.1,0.5,1.7,0.9,2v0
		C770.5,140.7,769.2,139.9,770.6,139.8z"/>
</g>
<path id="XMLID_229_" class="st9" d="M776.6,124.9c0,0,0.4,2.3-3.4,3.8c-3.8,1.5-3.7,4.7-4.5,7.5c-0.8,2.8-0.5,8.2-5.6,7.8
	c-5.1-0.4-11.5-4.6-11.1-5c0.2-0.2,2.7,0.2,4.9-6.7c1.7-5.4,4.9-14.4,15.7-13.1C774.3,119.3,777,121.1,776.6,124.9z"/>
<path id="XMLID_228_" class="st11" d="M782.1,143"/>
<g>
	<defs>
		<circle id="XMLID_225_" cx="1017.5" cy="139.2" r="32.5"/>
	</defs>
	<clipPath id="XMLID_424_">
		<use xlink:href="#XMLID_225_"  style="overflow:visible;"/>
	</clipPath>
	<path id="XMLID_227_" class="st40" d="M985.5,153.7c0.5-6.4,6.3-8.2,7.3-8.4c6.4-1.8,44.8,0.6,47.6,0.5c8.1,0,7.9,30.8,7.9,30.8
		l-8.2-0.5c-0.8,10.6-1.8,20-1.8,20.3c-1.3,10.1-40.9,11.5-42.9,0.7c-0.9-4.7-2-14.3-2.8-24l-4.5-0.3
		C988.3,172.8,984.9,160.7,985.5,153.7z"/>
	<path id="XMLID_226_" class="st41" d="M1048.4,159.4c0,0-10.7-6.3-10.7-13.7c0,0-4.1-0.9-6.3-0.3c-2.3,0.6-14.2,23.5-14.2,23.5
		l-13.2-24.4l-7.9,0.2c0,0-9.9,6.4-11.2,16.8c-1.3,10.4,35.7,21.7,36.6,21.5C1022.6,182.9,1048.4,159.4,1048.4,159.4z"/>
</g>
<path id="XMLID_224_" class="st9" d="M1009.2,127.9c0.6,4.7-8.1,10.9-8.2,11.2c-1.2,0.4,7.5,4.5,8.7,6.6c1.2,2.1,5.3-3.2,5.9-5
	C1016.3,138.9,1008.4,121.3,1009.2,127.9z"/>
<path id="XMLID_223_" class="st9" d="M1026,154"/>
<g>
	<path id="XMLID_222_" class="st8" d="M1008.3,136.6c0.7-0.9,1-6.4,1-6.4c0-0.2,0-0.3,0.1-0.5c0,0,1-3.8,5.7-3.4
		c6.8,0.5,6.3,4,6.3,4c0.2,1-0.2,3-0.9,6c-1.9,7.8,7.4,8.2,7.6,8.9c0.2,0.6-9.2,4.1-14.8,3.4c-5.2-0.6-6.6-3.2-6.9-4.1
		c0-0.1,5-0.5,5-0.6c0,0,1.7,0.5,2.1-2.2c-1.4,0.3-2.8,0-2.8,0c-0.9-0.2-1.7-3.9-1.7-4.3C1009,136.8,1007.9,137.1,1008.3,136.6z"/>
	<path id="XMLID_221_" class="st9" d="M1014.4,141.5c-0.6,0-1.1,0.1-0.9,0.1c-0.2,1-0.5,1.5-0.9,1.9c0,0,0,0,0,0
		C1014.6,142.4,1015.7,141.6,1014.4,141.5z"/>
</g>
<path id="XMLID_220_" class="st9" d="M1008.8,127.6c0,0-0.4,2.1,3.2,3.5c3.5,1.4,3.4,4.4,4.2,7c0.7,2.6,0.4,7.7,5.2,7.2
	c4.8-0.4,10.7-4.3,10.4-4.7c-0.2-0.2-2.5,0.2-4.5-6.2c-1.6-5-4.5-13.4-14.6-12.2C1011,122.4,1008.5,124.1,1008.8,127.6z"/>
<path id="XMLID_219_" class="st11" d="M1003.7,144.5"/>
<circle id="XMLID_217_" class="st2" cx="805.1" cy="88.9" r="0.7"/>
<circle id="XMLID_216_" class="st2" cx="731.3" cy="89.2" r="1"/>
<circle id="XMLID_215_" class="st2" cx="805.4" cy="88.6" r="0.3"/>
<circle id="XMLID_214_" class="st2" cx="1024.9" cy="144.5" r="0.7"/>
<rect id="XMLID_213_" x="1025.6" y="106.8" class="st2" width="0" height="0"/>
<circle id="XMLID_212_" class="st2" cx="995.4" cy="176" r="0.3"/>
<polygon id="XMLID_211_" class="st42" points="630.6,285.8 644.5,271.9 644.5,285.8 644.9,333.4 630.6,361.8 "/>
<path id="XMLID_17_" class="st9" d="M613.7,40l0.2,627H1084V40H613.7z M718,158h-57v-50h57V158z M801,158h-60v-50h60V158z M882,158
	h-57v-50h57V158z M965,158h-57v-50h57V158z M970.5,131.2L970.5,131.2L970.5,131.2L970.5,131.2L970.5,131.2z M1046,158h-57v-51h57
	V158z"/>
<path id="XMLID_203_" class="st43" d="M834.3,436.1h38c17.6,0,31.8,14.2,31.8,31.8v202.3H802.5V467.9
	C802.5,450.3,816.8,436.1,834.3,436.1z"/>
<g>
	<defs>
		<path id="XMLID_193_" d="M743.6,462.9h-48.7c-22.5,0-40.8,18.3-40.8,40.8v152.7h130.2V503.6C784.3,481.1,766.1,462.9,743.6,462.9z
			"/>
	</defs>
	<clipPath id="XMLID_427_">
		<use xlink:href="#XMLID_193_"  style="overflow:visible;"/>
	</clipPath>
	<rect id="XMLID_202_" x="654.2" y="559.6" class="st44" width="130.4" height="13.2"/>
	<rect id="XMLID_201_" x="654.2" y="580.2" class="st44" width="130.4" height="13.2"/>
	<rect id="XMLID_200_" x="654.2" y="600.7" class="st44" width="130.4" height="13.2"/>
	<rect id="XMLID_199_" x="654.2" y="621.2" class="st44" width="130.4" height="13.2"/>
	<rect id="XMLID_198_" x="654.2" y="641.7" class="st44" width="130.4" height="13.2"/>
	<rect id="XMLID_197_" x="654.2" y="537.1" class="st44" width="130.4" height="13.2"/>
	<rect id="XMLID_196_" x="654.2" y="514.6" class="st44" width="130.4" height="13.2"/>
	<rect id="XMLID_195_" x="654.2" y="492.1" class="st44" width="130.4" height="13.2"/>
	<rect id="XMLID_194_" x="654.2" y="468.9" class="st44" width="130.4" height="13.2"/>
</g>
<path id="XMLID_192_" class="st16" d="M743.6,462.9h-48.7c-22.5,0-40.8,18.3-40.8,40.8v152.7h130.2V503.6
	C784.3,481.1,766.1,462.9,743.6,462.9z"/>
<g>
	<defs>
		<path id="XMLID_182_" d="M1009,462.9h-48.7c-22.5,0-40.8,18.3-40.8,40.8v152.7h130.2V503.6C1049.8,481.1,1031.6,462.9,1009,462.9z
			"/>
	</defs>
	<clipPath id="XMLID_428_">
		<use xlink:href="#XMLID_182_"  style="overflow:visible;"/>
	</clipPath>
	<rect id="XMLID_191_" x="919.7" y="559.6" class="st45" width="130.4" height="13.2"/>
	<rect id="XMLID_190_" x="919.7" y="580.2" class="st45" width="130.4" height="13.2"/>
	<rect id="XMLID_189_" x="919.7" y="600.7" class="st45" width="130.4" height="13.2"/>
	<rect id="XMLID_188_" x="919.7" y="621.2" class="st45" width="130.4" height="13.2"/>
	<rect id="XMLID_187_" x="919.7" y="641.7" class="st45" width="130.4" height="13.2"/>
	<rect id="XMLID_186_" x="919.7" y="537.1" class="st45" width="130.4" height="13.2"/>
	<rect id="XMLID_185_" x="919.7" y="514.6" class="st45" width="130.4" height="13.2"/>
	<rect id="XMLID_184_" x="919.7" y="492.1" class="st45" width="130.4" height="13.2"/>
	<rect id="XMLID_183_" x="919.7" y="468.9" class="st45" width="130.4" height="13.2"/>
</g>
<path id="XMLID_181_" class="st16" d="M1009,462.9h-48.7c-22.5,0-40.8,18.3-40.8,40.8v152.7h130.2V503.6
	C1049.8,481.1,1031.6,462.9,1009,462.9z"/>
<circle id="XMLID_180_" class="st2" cx="761.1" cy="223.6" r="0.3"/>
<circle id="XMLID_179_" class="st2" cx="714.7" cy="309.7" r="0.3"/>
<path id="XMLID_178_" class="st43" d="M737.2,196.1h-39.4c-18.2,0-33,14.8-33,33v104.3h105.4V229.1
	C770.2,210.9,755.4,196.1,737.2,196.1z"/>
<path id="XMLID_177_" class="st43" d="M891.6,305.4H814v-85.1c0-13.4,10.9-24.3,24.3-24.3h29c13.4,0,24.3,10.9,24.3,24.3V305.4z"/>
<path id="XMLID_176_" class="st42" d="M885.8,299.2h-66.1v-77.3c0-11.4,9.3-20.7,20.7-20.7h24.7c11.4,0,20.7,9.3,20.7,20.7V299.2z"
	/>
<path id="XMLID_175_" class="st43" d="M975.3,305.4h-77.6v-85.1c0-13.4,10.9-24.3,24.3-24.3h29c13.4,0,24.3,10.9,24.3,24.3V305.4z"
	/>
<path id="XMLID_174_" class="st42" d="M969.6,299.2h-66.1v-77.3c0-11.4,9.3-20.7,20.7-20.7h24.7c11.4,0,20.7,9.3,20.7,20.7V299.2z"
	/>
<path id="XMLID_173_" class="st43" d="M1059.1,305.4h-77.6v-85.1c0-13.4,10.9-24.3,24.3-24.3h29c13.4,0,24.3,10.9,24.3,24.3V305.4z"
	/>
<path id="XMLID_172_" class="st42" d="M1053.3,299.2h-66.1v-77.3c0-11.4,9.3-20.7,20.7-20.7h24.7c11.4,0,20.7,9.3,20.7,20.7V299.2z"
	/>
<path class="st42" d="M630.6,285.8v76.1l172.6-0.3v-76.1L630.6,285.8z M648.4,346.2l4.4,11.1h-4.6h-2.8h-0.6h-3.4h-4l4-10.1v-44.8
	l-4-10.1h4h3.4h0.6h2.8h4.6l-4.4,11.1l-0.2,0v42.7L648.4,346.2z M668.9,346.2l4.4,11.1h-4.6h-2.8h-0.6H662h-4l4-10.1v-44.8l-4-10.1
	h4h3.4h0.6h2.8h4.6l-4.4,11.1l-0.2,0v42.7L668.9,346.2z M689.5,346.2l4.4,11.1h-4.6h-2.8h-0.6h-3.4h-4l4-10.1v-44.8l-4-10.1h4h3.4
	h0.6h2.8h4.6l-4.4,11.1l-0.2,0v42.7L689.5,346.2z M710,346.2l4.4,11.1h-4.6H707h-0.6H703h-4l4-10.1v-44.8l-4-10.1h4h3.4h0.6h2.8h4.6
	l-4.4,11.1l-0.2,0v42.7L710,346.2z M730.5,346.2l4.4,11.1h-4.6h-2.8h-0.6h-3.4h-4l4-10.1v-44.8l-4-10.1h4h3.4h0.6h2.8h4.6l-4.4,11.1
	l-0.2,0v42.7L730.5,346.2z M751,346.2l4.4,11.1h-4.6H748h-0.6H744h-4l4-10.1v-44.8l-4-10.1h4h3.4h0.6h2.8h4.6l-4.4,11.1l-0.2,0v42.7
	L751,346.2z M771.5,346.2l4.4,11.1h-4.6h-2.8h-0.6h-3.4h-4l4-10.1v-44.8l-4-10.1h4h3.4h0.6h2.8h4.6l-4.4,11.1l-0.2,0v42.7
	L771.5,346.2z M792,346.2l4.4,11.1h-4.6H789h-0.6H785h-4l4-10.1v-44.8l-4-10.1h4h3.4h0.6h2.8h4.6l-4.4,11.1l-0.2,0v42.7L792,346.2z"
	/>
<polygon id="XMLID_162_" class="st43" points="630.6,361.8 644.9,333.4 791.8,333.4 803.2,361.8 "/>
<circle id="XMLID_161_" class="st2" cx="768" cy="152.5" r="0.7"/>
<rect id="XMLID_160_" x="952.7" y="106.8" class="st2" width="0" height="0"/>
<rect id="XMLID_159_" x="988.5" y="113.4" class="st2" width="0" height="0"/>
<rect id="XMLID_158_" x="977.9" y="96.2" class="st2" width="0" height="0"/>
<ellipse id="XMLID_157_" class="st2" cx="1007.4" cy="106.8" rx="1" ry="0"/>
<ellipse id="XMLID_156_" class="st2" cx="978.9" cy="150.5" rx="1" ry="0"/>
<circle id="XMLID_155_" class="st2" cx="937.2" cy="144.2" r="0.3"/>
<rect id="XMLID_154_" x="654.6" y="151.3" class="st42" width="66.2" height="6.6"/>
<rect id="XMLID_153_" x="654.6" y="100.9" class="st42" width="66.2" height="6.6"/>
<rect id="XMLID_152_" x="737.1" y="151.3" class="st42" width="66.2" height="6.6"/>
<rect id="XMLID_151_" x="737.1" y="100.9" class="st42" width="66.2" height="6.6"/>
<rect id="XMLID_150_" x="819.7" y="151.3" class="st42" width="66.2" height="6.6"/>
<rect id="XMLID_149_" x="819.7" y="100.9" class="st42" width="66.2" height="6.6"/>
<rect id="XMLID_148_" x="902.2" y="151.3" class="st42" width="66.2" height="6.6"/>
<rect id="XMLID_147_" x="902.2" y="100.9" class="st42" width="66.2" height="6.6"/>
<rect id="XMLID_146_" x="984.8" y="100.9" class="st42" width="66.2" height="6.6"/>
<rect id="XMLID_145_" x="984.8" y="151.3" class="st42" width="66.2" height="6.6"/>
<g>
	<path id="XMLID_144_" class="st10" d="M402,528.5c0,0,2.4,3.1,4,7c1.6,3.9-0.8,7.3-1.7,6.9c-0.8-0.4-3.4,3.4-5.1,4.3
		c-1.7,0.8-3.3,8-9.8,5.6c-6.5-2.4-12.9-3.6-14.2-5.9c-1.3-2.3-2.2-0.7-1.6-6.2c0.6-5.6-0.4-9.1,5.7-9.3
		C385.4,530.6,402,528.5,402,528.5z"/>
	<g>
		<g id="XMLID_410_">
			<path id="XMLID_411_" class="st10" d="M454.1,611.4c-2.1-0.1-4.8-2.3-4.8-4.9c0.1-2.6,2.9-4.7,5-4.7L454.1,611.4z"/>
		</g>
	</g>
	<g>
		<path id="XMLID_142_" class="st46" d="M454.9,606.7c-0.1,2.6-0.3,4.8-0.5,4.8c-0.2,0-0.3-2.1-0.3-4.8c0.1-2.6,0.3-4.8,0.5-4.8
			C454.9,601.9,455,604,454.9,606.7z"/>
	</g>
	<g>
		<path id="XMLID_141_" class="st46" d="M414.5,596.4c9.8,20.1-7.4,71-9.2,81.1c0,1.4-6,0.7-6,0.7s5.4-44.7,8.2-56.6
			c2.7-12,0.3-12.9-3.5-15.9C400.3,602.6,409.4,585.8,414.5,596.4z"/>
	</g>
	<g>
		<polygon id="XMLID_140_" class="st46" points="325.4,668.4 320.9,632.1 321.1,632.1 325.2,664.7 323.2,630.9 323.5,630.9 
			325.7,668.4 		"/>
	</g>
	<g>
		<polygon id="XMLID_139_" class="st46" points="325.5,668.5 303.4,639.3 303.6,639.1 323.4,665.3 304.8,637.1 305,637 325.7,668.3 
					"/>
	</g>
	<g>
		<polygon id="XMLID_138_" class="st46" points="325.5,668.5 291.8,654.3 291.9,654 322.1,666.8 291.9,651.7 292,651.5 325.6,668.3 
					"/>
	</g>
	<g>
		<polygon id="XMLID_137_" class="st46" points="289.2,673.1 289.2,672.8 321.8,668.8 288.1,670.7 288.1,670.5 325.5,668.3 
			325.6,668.5 		"/>
	</g>
	<g>
		<polygon id="XMLID_136_" class="st46" points="296.4,690.6 296.3,690.4 322.5,670.6 294.3,689.2 294.1,689 325.5,668.3 
			325.6,668.5 		"/>
	</g>
	<g>
		<polygon id="XMLID_135_" class="st46" points="311.4,702.2 311.2,702.1 324,671.8 308.8,702 308.6,701.9 325.4,668.4 325.7,668.5 
					"/>
	</g>
	<g>
		<polygon id="XMLID_134_" class="st46" points="327.6,705.9 325.4,668.4 325.7,668.4 330.2,704.7 330,704.8 325.9,672.2 
			327.9,705.9 		"/>
	</g>
	<g>
		<polygon id="XMLID_133_" class="st46" points="346.1,699.8 325.4,668.5 325.6,668.3 347.7,697.5 347.5,697.7 327.7,671.5 
			346.3,699.7 		"/>
	</g>
	<g>
		<polygon id="XMLID_132_" class="st46" points="359.1,685.3 325.5,668.5 325.6,668.3 359.3,682.5 359.2,682.8 329,670 359.2,685.1 
					"/>
	</g>
	<g>
		<polygon id="XMLID_131_" class="st46" points="325.6,668.5 325.5,668.3 361.9,663.8 361.9,664 329.3,668.1 363,666.1 363,666.3 		
			"/>
	</g>
	<g>
		<polygon id="XMLID_130_" class="st46" points="325.6,668.5 325.5,668.3 354.7,646.2 354.8,646.4 328.6,666.2 356.8,647.7 
			357,647.9 		"/>
	</g>
	<g>
		<polygon id="XMLID_129_" class="st46" points="325.7,668.5 325.4,668.4 339.7,634.6 339.9,634.7 327.1,665 342.3,634.8 
			342.5,634.9 		"/>
	</g>
	<g>
		<path class="st9" d="M324.6,708.2c-22-0.5-39.4-18.8-38.9-40.8c0.5-22,18.8-39.4,40.8-38.9c22,0.5,39.4,18.8,38.9,40.8
			C364.9,691.3,346.5,708.8,324.6,708.2z M326.4,633.4c-19.3-0.5-35.4,14.8-35.8,34.1c-0.5,19.3,14.8,35.4,34.1,35.8
			c19.3,0.5,35.4-14.8,35.8-34.1C361,650,345.7,633.9,326.4,633.4z"/>
	</g>
	<g>
		<polygon id="XMLID_126_" class="st46" points="473.2,671.1 468.7,634.8 469,634.8 473,667.4 471,633.6 471.3,633.6 473.5,671.1 		
			"/>
	</g>
	<g>
		<polygon id="XMLID_125_" class="st46" points="473.3,671.2 451.2,642 451.4,641.8 471.2,668 452.6,639.8 452.8,639.7 473.5,671.1 
					"/>
	</g>
	<g>
		<polygon id="XMLID_124_" class="st46" points="473.3,671.2 439.6,657 439.7,656.8 469.9,669.5 439.7,654.4 439.9,654.2 473.4,671 
					"/>
	</g>
	<g>
		<polygon id="XMLID_123_" class="st46" points="437,675.8 437,675.5 469.6,671.5 435.9,673.5 435.9,673.2 473.4,671 473.4,671.2 		
			"/>
	</g>
	<g>
		<polygon id="XMLID_122_" class="st46" points="444.2,693.3 444.1,693.1 470.3,673.3 442.1,691.9 441.9,691.7 473.3,671 
			473.4,671.2 		"/>
	</g>
	<g>
		<polygon id="XMLID_121_" class="st46" points="459.2,704.9 459,704.8 471.8,674.5 456.6,704.7 456.4,704.6 473.3,671.1 
			473.5,671.2 		"/>
	</g>
	<g>
		<polygon id="XMLID_120_" class="st46" points="475.4,708.6 473.2,671.1 473.5,671.1 478,707.4 477.8,707.5 473.7,674.9 
			475.7,708.6 		"/>
	</g>
	<g>
		<polygon id="XMLID_119_" class="st46" points="493.9,702.5 473.3,671.2 473.5,671.1 495.6,700.3 495.4,700.4 475.5,674.2 
			494.1,702.4 		"/>
	</g>
	<g>
		<path id="XMLID_118_" class="st47" d="M405.3,677.5c0,0-0.9,5.4-0.4,5.7c0,0,5.4,1.8,5.5,2.5c0,0.7-3.7,0-7.8,0
			c-4.1-0.1-4.1-0.1-4.1-0.1s-0.3-0.2-0.3-0.6c0-0.4,0.9-5.8,1.1-7.1C399.5,676.5,405.3,677.5,405.3,677.5z"/>
	</g>
	<g>
		<polygon id="XMLID_117_" class="st46" points="506.9,688.1 473.3,671.2 473.4,671 507.1,685.3 507,685.5 476.8,672.7 507,687.8 		
			"/>
	</g>
	<g>
		<polygon id="XMLID_116_" class="st46" points="473.4,671.2 473.3,671 509.7,666.5 509.7,666.7 477.1,670.8 510.8,668.8 510.9,669 
					"/>
	</g>
	<g>
		<polygon id="XMLID_115_" class="st46" points="473.4,671.2 473.3,671 502.5,648.9 502.6,649.1 476.4,668.9 504.7,650.4 
			504.8,650.6 		"/>
	</g>
	<g>
		<path id="XMLID_114_" class="st47" d="M400.8,543.8c-3.1-1.8,8,19,7.6,22.9c-0.4,4,15.6,13.5,17.2,14c0,0,1.7-0.3,1.9-1.5
			c0.2-1.2-5.7-7.9-8.1-11.4C414.9,561.4,405.5,544.2,400.8,543.8"/>
	</g>
	<g>
		<polygon id="XMLID_113_" class="st46" points="473.5,671.2 473.2,671.1 487.5,637.3 487.7,637.4 474.9,667.7 490.1,637.5 
			490.3,637.6 		"/>
	</g>
	<g>
		
			<rect id="XMLID_112_" x="386.9" y="676.6" transform="matrix(0.5323 0.8466 -0.8466 0.5323 759.7358 -20.1868)" class="st47" width="22.4" height="1.6"/>
	</g>
	<g>
		
			<rect id="XMLID_111_" x="399.2" y="685.6" transform="matrix(0.9997 2.420652e-002 -2.420652e-002 0.9997 16.7337 -9.5653)" class="st47" width="8.6" height="1.6"/>
	</g>
	<g>
		<path class="st9" d="M472.4,711c-22-0.5-39.4-18.8-38.9-40.8c0.5-22,18.8-39.4,40.8-38.9c22,0.5,39.4,18.8,38.9,40.8
			C512.7,694.1,494.4,711.5,472.4,711z M474.2,636.1c-19.3-0.5-35.4,14.8-35.8,34.1c-0.5,19.3,14.8,35.4,34.1,35.8
			c19.3,0.5,35.4-14.8,35.8-34.1C508.8,652.7,493.5,636.6,474.2,636.1z"/>
	</g>
	<g>
		<g id="XMLID_449_">
			<g id="XMLID_450_">
				<path id="XMLID_451_" class="st10" d="M392.6,670.5l-69.3-0.8c-0.6,0-1-0.4-1.2-0.9c-0.2-0.5,0-1.1,0.4-1.5l61.4-63.4
					c0.2-0.2,0.6-0.3,0.9-0.3l64.5,1.3c0.5,0,1,0.3,1.2,0.8c0.2,0.5,0.1,1-0.2,1.4l-56.6,62.9C393.3,670.3,393,670.5,392.6,670.5z
					 M326.9,667.1l65.1,0.7l54.2-60.3l-61.1-1.2L326.9,667.1z"/>
			</g>
		</g>
	</g>
	<g>
		<path id="XMLID_106_" class="st46" d="M427.3,578.4c0,0,3.5,1.2,3.1,2.9c-0.4,1.8-2.8,1.9-2.8,1.9l-1.8-2.4L427.3,578.4z"/>
	</g>
	<g>
		<g id="XMLID_413_">
			<path id="XMLID_414_" class="st10" d="M392.6,670.5c-0.7,0-1.2-0.5-1.3-1.2l-9.1-73.5c-0.1-0.7,0.4-1.4,1.2-1.5
				c0.7-0.1,1.4,0.4,1.5,1.2l9.1,73.5c0.1,0.7-0.4,1.4-1.2,1.5C392.7,670.5,392.6,670.5,392.6,670.5z"/>
		</g>
	</g>
	<g>
		<g id="XMLID_416_">
			<path id="XMLID_417_" class="st10" d="M404.1,669.4c-0.2,6.3-5.4,11.4-11.8,11.2c-6.3-0.2-11.4-5.4-11.2-11.8
				c0.2-6.3,5.4-11.4,11.8-11.2C399.2,657.8,404.2,663.1,404.1,669.4z"/>
		</g>
	</g>
	<g>
		<g id="XMLID_419_">
			<path id="XMLID_420_" class="st10" d="M473.3,672.5c-0.3,0-0.7-0.1-0.9-0.4c-9.7-10.2-15.8-27-19.3-39.2
				c-4.1-14.5-5.7-27.4-5.6-31.9c0.2-6.9-2.8-11-8.1-11.1l-15.5-0.4c-0.7,0-1.3-0.6-1.3-1.4c0-0.7,0.6-1.3,1.4-1.3l15.5,0.4
				c3.1,0.1,5.8,1.2,7.6,3.4c2.1,2.4,3.2,6,3,10.5c-0.1,4.2,1.6,17.1,5.5,31.1c3.4,12,9.3,28.3,18.6,38.1c0.5,0.5,0.5,1.4,0,1.9
				C474,672.3,473.7,672.5,473.3,672.5z"/>
		</g>
	</g>
	<g>
		<g id="XMLID_422_">
			<path id="XMLID_423_" class="st10" d="M450.7,618.2c-0.6,0-1.1-0.4-1.3-1.1c-1.5-7.3-2.2-15-2-22.7c0.2-6.9-2.8-11-8.1-11.1
				l-15.5-0.4c-0.7,0-1.3-0.6-1.3-1.4c0-0.7,0.6-1.3,1.4-1.3l15.5,0.4c3.1,0.1,5.8,1.2,7.6,3.4c2.1,2.4,3.1,6,3,10.5
				c-0.2,7.5,0.5,15,1.9,22.1c0.2,0.7-0.3,1.4-1,1.6C450.9,618.2,450.8,618.2,450.7,618.2z"/>
		</g>
	</g>
	<g>
		
			<rect id="XMLID_101_" x="380.3" y="659.8" transform="matrix(0.28 0.96 -0.96 0.28 915.0044 101.1117)" class="st47" width="19.5" height="1.6"/>
	</g>
	<g>
		
			<rect id="XMLID_100_" x="383.4" y="651.2" transform="matrix(0.9997 2.445208e-002 -2.445208e-002 0.9997 16.0587 -9.2846)" class="st47" width="8.6" height="1.6"/>
	</g>
	<g>
		
			<rect id="XMLID_99_" x="422.7" y="580.3" transform="matrix(0.9997 2.429942e-002 -2.429942e-002 0.9997 14.262 -10.2277)" class="st47" width="10.5" height="2.9"/>
	</g>
	<g>
		
			<rect id="XMLID_98_" x="422.6" y="586.7" transform="matrix(0.9997 2.428369e-002 -2.428369e-002 0.9997 14.4085 -10.2155)" class="st47" width="10.5" height="2.9"/>
	</g>
	<g>
		<path id="XMLID_97_" class="st47" d="M395.3,632.6c0,0,19-5.5,21.3-6.1c2.3-0.6,1.1-19.6,1.1-19.6l-9.7-0.2
			C408,606.8,395.4,631.5,395.3,632.6z"/>
	</g>
	<g>
		<path id="XMLID_96_" class="st47" d="M385,641.7c-1.6,3.8-2.6,7.2-2.5,9.4c0.3,0.1,8.5,0.2,9.8,0.2c1.3,0,0.6-1.1-0.3-1.5
			c-0.9-0.4-4.6-1.2-4.7-1.8c0-0.2,1.6-2.4,3.9-5.6C389.1,642.1,387,641.8,385,641.7z"/>
	</g>
	<g>
		<path id="XMLID_95_" class="st46" d="M404.9,619.6c0.2-6.2-10.2-25-14.1-26.9l-9.1,6c0,0,14.2,18.2,14.4,20.6
			c0,0.2-7.2,12.6-11.2,22.4c2.1,0.1,4.1,0.4,6.2,0.7C396.3,635.2,404.8,623.1,404.9,619.6z"/>
	</g>
	<g>
		<path id="XMLID_94_" class="st48" d="M402.7,538.1"/>
	</g>
	<g>
		<path id="XMLID_93_" class="st49" d="M392.6,523.9"/>
	</g>
	<g>
		<path id="XMLID_92_" class="st47" d="M408.3,604.1c1.3,0,9.2,0.2,9.4,0.2c-0.5-6.2-9.4-38.2-9.5-46.6c-0.1-8.4-7.4-15.5-7.9-15.3
			c-1.3,0.6-11.1-2.1-11.1-2.1c-9.8,6.4-14.5,36.1-14.4,48.8c0,10.5,5.7,35.1,9.4,41c10.9,3.1,18.2-15.1,23.7-15.4
			C413.4,614.5,407.5,605,408.3,604.1z"/>
	</g>
	<g>
		<g id="XMLID_425_">
			<path id="XMLID_426_" class="st42" d="M386,552.1c0,0,1.4,4.6,2.8,6.2c1.4,1.6,22.1,23.9,23.7,22.5c-1-3.9-1.4-4.8-2.3-6.8
				C409.3,571.9,386,552.1,386,552.1z"/>
		</g>
	</g>
	<g>
		<path id="XMLID_90_" class="st46" d="M398.5,541.2c0.1-2.2,0.3-1.5,1.6-1.7c0.7-0.1,1.1-0.8,1.1-1.4c0.1-0.5,0.6-1.4,0.7-1.7
			c0.1-0.4,0.9,0,0.6-0.5c-0.4-0.7,0-5,0-5c0-0.1,0-0.3,0-0.4c0,0,0.6-2.9-3.9-3.7c-5.2-0.9-5.4,2.7-5.4,2.7c-0.3,0.7-0.2,2.4,0,4.7
			c0.5,6.2-3.8,5.5-4.1,6c-0.2,0.4,3.6,5,8,5.1c4.1,0.2,3-2.5,3.3-3.2C398.5,542,398.5,541.3,398.5,541.2z"/>
		<path id="XMLID_89_" class="st47" d="M397.9,539.2c-1-0.4,0.5,1.3,0.6,2l0,0c0.1-2.2,0.3-1.5,1.6-1.7
			C400,539.5,398.9,539.5,397.9,539.2z"/>
	</g>
	<path id="XMLID_88_" class="st50" d="M389.2,543.5c7.8,0,6.5,9.1,6.5,9.1s3.2,43.5-7.8,43.5"/>
	<g>
		<path id="XMLID_87_" class="st47" d="M426.9,585.8c-1.6-1.2-24.5-32.5-31.1-36.1c-6.7-3.7-8.2-2.9-9.9,2.4c0,0,29.6,33.1,39.2,37
			C424.8,587.9,426.1,586.8,426.9,585.8z"/>
	</g>
	<g>
		<path id="XMLID_86_" class="st1" d="M427.3,578.4"/>
	</g>
	<g>
		<path id="XMLID_85_" class="st46" d="M426.9,585.8c0,0,4.4,1.9,3,3.2c-1.3,1.2-4.9,1.9-5.2-0.1
			C424.4,586.9,426.9,585.8,426.9,585.8z"/>
	</g>
	<g>
		<path id="XMLID_84_" class="st46" d="M427.5,580.5c0,0,0.1,2.6,0.9,1.6c0.9-1,1.7-1.6,1.1-2.1
			C428.9,579.5,427.5,580.5,427.5,580.5z"/>
	</g>
	<path id="XMLID_83_" class="st42" d="M389.2,542.2c-1.3,0.6-39-3.9-39-3.9l-6.5,58.4l44.1,1.9l1.3-54.9L389.2,542.2z"/>
	<path id="XMLID_82_" class="st10" d="M401.2,530.5c0,0,2.7-0.2,2.2-2.1c-0.5-1.9-3.5-6.1-11.3-3.2c-7.8,2.9-6.8,4.7-12.5,1.7
		c-5.7-3-20,3.3-24.4,5.6c-4.4,2.3-5.7,10.8,1.9,10.7c7.5-0.1,13.2,1,20,5.1c6.8,4.1,15.8-1,16.4-4c0.6-3,4.1-8.5,5.6-8.8
		C400.5,535.2,396.9,530.1,401.2,530.5z"/>
</g>
<line id="XMLID_81_" class="st51" x1="326.4" y1="311.8" x2="326.4" y2="342.4"/>
<g class="st52">
	<rect id="XMLID_80_" x="323.8" y="311.8" class="st53" width="2.6" height="30.6"/>
	<polygon id="XMLID_79_" class="st53" points="326.4,311.8 323.8,308.6 323.8,315 	"/>
	<polygon id="XMLID_71_" class="st53" points="326.4,342.4 323.8,339.2 323.8,345.6 	"/>
</g>
<line id="XMLID_70_" class="st51" x1="441.4" y1="311.8" x2="441.4" y2="342.4"/>
<g class="st52">
	<rect id="XMLID_69_" x="441.4" y="311.8" class="st53" width="2.6" height="30.6"/>
	<polygon id="XMLID_68_" class="st53" points="441.4,311.8 443.9,308.6 443.9,315 	"/>
	<polygon id="XMLID_67_" class="st53" points="441.4,342.4 443.9,339.2 443.9,345.6 	"/>
</g>
<line id="XMLID_66_" class="st51" x1="826.8" y1="116.7" x2="826.8" y2="147.3"/>
<g class="st52">
	<rect id="XMLID_65_" x="826.8" y="116.7" class="st53" width="2.6" height="30.6"/>
	<polygon id="XMLID_63_" class="st53" points="826.8,116.7 829.4,113.5 829.4,119.9 	"/>
	<polygon id="XMLID_62_" class="st53" points="826.8,147.3 829.4,144.1 829.4,150.5 	"/>
</g>
<line id="XMLID_61_" class="st51" x1="961.3" y1="116.7" x2="961.3" y2="147.3"/>
<g class="st52">
	<rect id="XMLID_60_" x="958.7" y="116.7" class="st53" width="2.6" height="30.6"/>
	<polygon id="XMLID_59_" class="st53" points="961.3,116.7 958.7,113.5 958.7,119.9 	"/>
	<polygon id="XMLID_58_" class="st53" points="961.3,147.3 958.7,144.1 958.7,150.5 	"/>
</g>
<g>
	<path id="XMLID_52_" class="st42" d="M670.9,149.9h-8.1c-0.2,0-0.4-0.2-0.4-0.4v-12.9c0-0.2,0.2-0.4,0.4-0.4h8.1
		c0.2,0,0.4,0.2,0.4,0.4v12.9C671.3,149.7,671.1,149.9,670.9,149.9z"/>
	<path id="XMLID_51_" class="st46" d="M670.3,148.1h-7c-0.2,0-0.4-0.2-0.4-0.4v-10.6c0-0.2,0.2-0.4,0.4-0.4h7c0.2,0,0.4,0.2,0.4,0.4
		v10.6C670.8,147.9,670.6,148.1,670.3,148.1z"/>
	<path id="XMLID_50_" class="st46" d="M667.2,149.7h-0.7c-0.1,0-0.2-0.1-0.2-0.2v-0.7c0-0.1,0.1-0.2,0.2-0.2h0.7
		c0.1,0,0.2,0.1,0.2,0.2v0.7C667.4,149.6,667.3,149.7,667.2,149.7z"/>
	<path id="XMLID_49_" class="st54" d="M669.6,138.9h-0.7c-0.1,0-0.2-0.1-0.2-0.2V138c0-0.1,0.1-0.2,0.2-0.2h0.7
		c0.1,0,0.2,0.1,0.2,0.2v0.7C669.9,138.8,669.8,138.9,669.6,138.9z"/>
	<path id="XMLID_48_" class="st54" d="M666.5,138.9h-0.7c-0.1,0-0.2-0.1-0.2-0.2V138c0-0.1,0.1-0.2,0.2-0.2h0.7
		c0.1,0,0.2,0.1,0.2,0.2v0.7C666.7,138.8,666.6,138.9,666.5,138.9z"/>
	<path id="XMLID_46_" class="st54" d="M664.9,138.9h-0.7c-0.1,0-0.2-0.1-0.2-0.2V138c0-0.1,0.1-0.2,0.2-0.2h0.7
		c0.1,0,0.2,0.1,0.2,0.2v0.7C665.1,138.8,665,138.9,664.9,138.9z"/>
	<path id="XMLID_45_" class="st54" d="M664.9,140.5h-0.7c-0.1,0-0.2-0.1-0.2-0.2v-0.7c0-0.1,0.1-0.2,0.2-0.2h0.7
		c0.1,0,0.2,0.1,0.2,0.2v0.7C665.1,140.4,665,140.5,664.9,140.5z"/>
	<path id="XMLID_44_" class="st54" d="M666.5,140.5h-0.7c-0.1,0-0.2-0.1-0.2-0.2v-0.7c0-0.1,0.1-0.2,0.2-0.2h0.7
		c0.1,0,0.2,0.1,0.2,0.2v0.7C666.7,140.4,666.6,140.5,666.5,140.5z"/>
	<path id="XMLID_43_" class="st54" d="M668.1,140.5h-0.7c-0.1,0-0.2-0.1-0.2-0.2v-0.7c0-0.1,0.1-0.2,0.2-0.2h0.7
		c0.1,0,0.2,0.1,0.2,0.2v0.7C668.3,140.4,668.2,140.5,668.1,140.5z"/>
	<path id="XMLID_42_" class="st54" d="M669.6,140.5h-0.7c-0.1,0-0.2-0.1-0.2-0.2v-0.7c0-0.1,0.1-0.2,0.2-0.2h0.7
		c0.1,0,0.2,0.1,0.2,0.2v0.7C669.9,140.4,669.8,140.5,669.6,140.5z"/>
	<path id="XMLID_41_" class="st54" d="M668.1,138.9h-0.7c-0.1,0-0.2-0.1-0.2-0.2V138c0-0.1,0.1-0.2,0.2-0.2h0.7
		c0.1,0,0.2,0.1,0.2,0.2v0.7C668.3,138.8,668.2,138.9,668.1,138.9z"/>
</g>
<g>
	<path id="XMLID_40_" class="st42" d="M800.2,149.9h-8.1c-0.2,0-0.4-0.2-0.4-0.4v-12.9c0-0.2,0.2-0.4,0.4-0.4h8.1
		c0.2,0,0.4,0.2,0.4,0.4v12.9C800.6,149.7,800.4,149.9,800.2,149.9z"/>
	<path id="XMLID_39_" class="st46" d="M799.7,148.1h-7c-0.2,0-0.4-0.2-0.4-0.4v-10.6c0-0.2,0.2-0.4,0.4-0.4h7c0.2,0,0.4,0.2,0.4,0.4
		v10.6C800.1,147.9,799.9,148.1,799.7,148.1z"/>
	<path id="XMLID_38_" class="st46" d="M796.5,149.7h-0.7c-0.1,0-0.2-0.1-0.2-0.2v-0.7c0-0.1,0.1-0.2,0.2-0.2h0.7
		c0.1,0,0.2,0.1,0.2,0.2v0.7C796.8,149.6,796.7,149.7,796.5,149.7z"/>
	<path id="XMLID_37_" class="st54" d="M799,138.9h-0.7c-0.1,0-0.2-0.1-0.2-0.2V138c0-0.1,0.1-0.2,0.2-0.2h0.7c0.1,0,0.2,0.1,0.2,0.2
		v0.7C799.2,138.8,799.1,138.9,799,138.9z"/>
	<path id="XMLID_36_" class="st54" d="M795.8,138.9h-0.7c-0.1,0-0.2-0.1-0.2-0.2V138c0-0.1,0.1-0.2,0.2-0.2h0.7
		c0.1,0,0.2,0.1,0.2,0.2v0.7C796,138.8,795.9,138.9,795.8,138.9z"/>
	<path id="XMLID_35_" class="st54" d="M794.2,138.9h-0.7c-0.1,0-0.2-0.1-0.2-0.2V138c0-0.1,0.1-0.2,0.2-0.2h0.7
		c0.1,0,0.2,0.1,0.2,0.2v0.7C794.4,138.8,794.3,138.9,794.2,138.9z"/>
	<path id="XMLID_34_" class="st54" d="M794.2,140.5h-0.7c-0.1,0-0.2-0.1-0.2-0.2v-0.7c0-0.1,0.1-0.2,0.2-0.2h0.7
		c0.1,0,0.2,0.1,0.2,0.2v0.7C794.4,140.4,794.3,140.5,794.2,140.5z"/>
	<path id="XMLID_31_" class="st54" d="M795.8,140.5h-0.7c-0.1,0-0.2-0.1-0.2-0.2v-0.7c0-0.1,0.1-0.2,0.2-0.2h0.7
		c0.1,0,0.2,0.1,0.2,0.2v0.7C796,140.4,795.9,140.5,795.8,140.5z"/>
	<path id="XMLID_28_" class="st54" d="M797.4,140.5h-0.7c-0.1,0-0.2-0.1-0.2-0.2v-0.7c0-0.1,0.1-0.2,0.2-0.2h0.7
		c0.1,0,0.2,0.1,0.2,0.2v0.7C797.6,140.4,797.5,140.5,797.4,140.5z"/>
	<path id="XMLID_13_" class="st54" d="M799,140.5h-0.7c-0.1,0-0.2-0.1-0.2-0.2v-0.7c0-0.1,0.1-0.2,0.2-0.2h0.7
		c0.1,0,0.2,0.1,0.2,0.2v0.7C799.2,140.4,799.1,140.5,799,140.5z"/>
	<path id="XMLID_12_" class="st54" d="M797.4,138.9h-0.7c-0.1,0-0.2-0.1-0.2-0.2V138c0-0.1,0.1-0.2,0.2-0.2h0.7
		c0.1,0,0.2,0.1,0.2,0.2v0.7C797.6,138.8,797.5,138.9,797.4,138.9z"/>
</g>
<g>
	<path id="XMLID_11_" class="st42" d="M1001.4,150.5h-8.1c-0.2,0-0.4-0.2-0.4-0.4v-12.9c0-0.2,0.2-0.4,0.4-0.4h8.1
		c0.2,0,0.4,0.2,0.4,0.4v12.9C1001.8,150.3,1001.6,150.5,1001.4,150.5z"/>
	<path id="XMLID_10_" class="st46" d="M1000.9,148.7h-7c-0.2,0-0.4-0.2-0.4-0.4v-10.6c0-0.2,0.2-0.4,0.4-0.4h7
		c0.2,0,0.4,0.2,0.4,0.4v10.6C1001.3,148.5,1001.1,148.7,1000.9,148.7z"/>
	<path id="XMLID_9_" class="st46" d="M997.7,150.3H997c-0.1,0-0.2-0.1-0.2-0.2v-0.7c0-0.1,0.1-0.2,0.2-0.2h0.7
		c0.1,0,0.2,0.1,0.2,0.2v0.7C997.9,150.2,997.8,150.3,997.7,150.3z"/>
	<path id="XMLID_8_" class="st54" d="M1000.2,139.5h-0.7c-0.1,0-0.2-0.1-0.2-0.2v-0.7c0-0.1,0.1-0.2,0.2-0.2h0.7
		c0.1,0,0.2,0.1,0.2,0.2v0.7C1000.4,139.4,1000.3,139.5,1000.2,139.5z"/>
	<path id="XMLID_7_" class="st54" d="M997,139.5h-0.7c-0.1,0-0.2-0.1-0.2-0.2v-0.7c0-0.1,0.1-0.2,0.2-0.2h0.7c0.1,0,0.2,0.1,0.2,0.2
		v0.7C997.2,139.4,997.1,139.5,997,139.5z"/>
	<path id="XMLID_6_" class="st54" d="M995.4,139.5h-0.7c-0.1,0-0.2-0.1-0.2-0.2v-0.7c0-0.1,0.1-0.2,0.2-0.2h0.7
		c0.1,0,0.2,0.1,0.2,0.2v0.7C995.6,139.4,995.5,139.5,995.4,139.5z"/>
	<path id="XMLID_5_" class="st54" d="M995.4,141.1h-0.7c-0.1,0-0.2-0.1-0.2-0.2v-0.7c0-0.1,0.1-0.2,0.2-0.2h0.7
		c0.1,0,0.2,0.1,0.2,0.2v0.7C995.6,141,995.5,141.1,995.4,141.1z"/>
	<path id="XMLID_4_" class="st54" d="M997,141.1h-0.7c-0.1,0-0.2-0.1-0.2-0.2v-0.7c0-0.1,0.1-0.2,0.2-0.2h0.7c0.1,0,0.2,0.1,0.2,0.2
		v0.7C997.2,141,997.1,141.1,997,141.1z"/>
	<path id="XMLID_3_" class="st54" d="M998.6,141.1h-0.7c-0.1,0-0.2-0.1-0.2-0.2v-0.7c0-0.1,0.1-0.2,0.2-0.2h0.7
		c0.1,0,0.2,0.1,0.2,0.2v0.7C998.8,141,998.7,141.1,998.6,141.1z"/>
	<path id="XMLID_2_" class="st54" d="M1000.2,141.1h-0.7c-0.1,0-0.2-0.1-0.2-0.2v-0.7c0-0.1,0.1-0.2,0.2-0.2h0.7
		c0.1,0,0.2,0.1,0.2,0.2v0.7C1000.4,141,1000.3,141.1,1000.2,141.1z"/>
	<path id="XMLID_1_" class="st54" d="M998.6,139.5h-0.7c-0.1,0-0.2-0.1-0.2-0.2v-0.7c0-0.1,0.1-0.2,0.2-0.2h0.7
		c0.1,0,0.2,0.1,0.2,0.2v0.7C998.8,139.4,998.7,139.5,998.6,139.5z"/>
</g>
<rect id="XMLID_14_" x="-56.6" y="310.4" class="st9" width="306.4" height="357.3"/>
<rect id="XMLID_15_" x="1084" y="394.2" class="st9" width="306.4" height="273.5"/>
<polygon id="XMLID_218_" class="st10" points="614.5,41.9 598.6,26 1102.4,26 1086.2,42.2 "/>
</svg>
