<?xml version="1.0" encoding="utf-8"?>
<!-- Generator: Adobe Illustrator 19.0.0, SVG Export Plug-In . SVG Version: 6.00 Build 0)  -->
<svg version="1.1" xmlns="http://www.w3.org/2000/svg" xmlns:xlink="http://www.w3.org/1999/xlink" x="0px" y="0px"
	 viewBox="0 0 532.7 243.9" style="enable-background:new 0 0 532.7 243.9;" xml:space="preserve">
<style type="text/css">
	.st0{fill:#E6007E;stroke:#4C7CB3;stroke-width:4;stroke-linecap:square;stroke-miterlimit:10;}
	.st1{fill:#E6007E;stroke:#4C7CB3;stroke-width:4;stroke-miterlimit:10;}
	.st2{fill:#936037;stroke:#4C7CB3;stroke-width:4;stroke-miterlimit:10;}
	.st3{fill:#00AC98;stroke:#4C7CB3;stroke-width:4;stroke-linecap:square;stroke-miterlimit:10;}
</style>
<g id="Capa_1">
	<path id="XMLID_30_" class="st0" d="M137.3,94.1H68.2 M68.2,94.1V7.7h17.6v68.6h8.1V7.7h17.6v68.6h8.1V7.7h17.6v86.3"/>
	<path id="XMLID_40_" class="st1" d="M214.5,94.1h-17.6V7.7h17.6V94.1z"/>
	<path id="XMLID_48_" class="st1" d="M282.7,94.1v-8.6h-8.6V42h8.6v-8.6h26.2V42h8.6v43.4h-8.6v8.6H282.7z M274.1,85.4h8.6v8.6h-8.6
		V85.4z M274.1,33.5h8.6V42h-8.6V33.5z M291.7,76.4h8.1V51.1h-8.1V76.4z M308.9,33.5h8.6v8.9h-8.6V33.5z M308.9,85.7h8.6v8.4h-8.6
		V85.7z"/>
	<path id="XMLID_55_" class="st1" d="M343.2,94.1h-17.6V33.5h60.5V42h8.6v52h-17.6v-43H369v43h-17.6v-43h-8.1V94.1z M386.1,33.5h8.6
		v8.9h-8.6V33.5z"/>
	<path id="XMLID_58_" class="st1" d="M411.4,94.1v-8.6h-8.6V42h8.6v-8.6h26.2V42h8.6v26.2h-25.7v8.1h25.7v17.7H411.4z M402.8,85.4
		h8.6v8.6h-8.6V85.4z M402.8,33.5h8.1v8.3h-8.1V33.5z M420.4,51.1v8.1h8.1v-8.1H420.4z M437.6,33.5h8.6V42h-8.6V33.5z"/>
	<path id="XMLID_64_" class="st1" d="M41.2,205.5H22.7v-72.1h-18v-18.5h54.5v18.5h-18V205.5z"/>
	<path id="XMLID_66_" class="st1" d="M76.7,205.5v-9.1h-9v-45.5h9v-9h27.5v9h9v45.5h-9v9.1H76.7z M67.7,196.4h9v9.1h-9V196.4z
		 M67.7,141.9h9v9h-9V141.9z M86.2,186.9h8.5v-26.5h-8.5V186.9z M104.2,141.9h9v9.3h-9V141.9z M104.2,196.7h9v8.8h-9V196.7z"/>
	<path id="XMLID_73_" class="st1" d="M185.2,205.5h-18.5v-36.1h-18v-54.5h18.5v36h17.5v-36h18.5v54.5h-18V205.5z"/>
	<path id="XMLID_75_" class="st1" d="M220.7,205.5v-9.1h-9v-45.5h9v-9h27.5v9h9v45.5h-9v9.1H220.7z M211.7,196.4h9v9.1h-9V196.4z
		 M211.7,141.9h9v9h-9V141.9z M230.2,186.9h8.5v-26.5h-8.5V186.9z M248.2,141.9h9v9.3h-9V141.9z M248.2,196.7h9v8.8h-9V196.7z"/>
	<path id="XMLID_82_" class="st1" d="M274.7,205.5v-9.1h-9v-54.5h18.5v45h8.5v-45h18.5v54.5h-9v9.1H274.7z M265.7,196.4h9v9.1h-9
		V196.4z M302.2,196.7h9v8.8h-9V196.7z"/>
	<path id="XMLID_86_" class="st1" d="M338.2,205.5h-18.5v-63.6h36.5v18.5h-18V205.5z"/>
	<path id="XMLID_88_" class="st1" d="M400.7,205.5v-9.1h-9v-72.5h9v-9h45.5v18.5h-36v53.5h17.5v-17.5h-9v-18.5h27.5v45.5h-9v9.1
		H400.7z M391.7,196.4h9v9.1h-9V196.4z M391.7,114.9h8.5v8.7h-8.5V114.9z M437.2,196.7h9v8.8h-9V196.7z"/>
	<path id="XMLID_93_" class="st1" d="M473.2,133.4h-18.5v-18.5h18.5V133.4z M473.2,205.5h-18.5v-63.6h18.5V205.5z"/>
	<path id="XMLID_96_" class="st1" d="M518.2,232.5h-27.5V214h18v-8.5h-18v-9.1h-9v-45.5h9v-9h36.5v81.6h-9V232.5z M481.7,196.4h9
		v9.1h-9V196.4z M481.7,141.9h8.5v8.7h-8.5V141.9z M482.2,214h8.5v18.5h-8.5V214z M500.2,186.9h8.5v-26.5h-8.5V186.9z M518.2,223.8
		h9v8.7h-9V223.8z"/>
	<path id="XMLID_32_" class="st2" d="M163,51.2v8.1h8.1v-8.1H163z M145.4,32.8h43.4v34.8H163v8.1h25.7v17.7h-43.4V32.8z"/>
	<path id="XMLID_10_" class="st3" d="M266.3,58.2h-17.6v-8.6h-8.1v25.3h8.1v-8.6h17.6v27.1h-43.4V32.8h43.4V58.2"/>
</g>
<g id="Capa_2">
	<g id="XMLID_1_">
	</g>
	<g id="XMLID_4_">
	</g>
	<g id="XMLID_5_">
	</g>
	<g id="XMLID_6_">
	</g>
	<g id="XMLID_7_">
	</g>
	<g id="XMLID_8_">
	</g>
</g>
</svg>
